<svg xmlns="http://www.w3.org/2000/svg" xmlns:xlink="http://www.w3.org/1999/xlink" width="500" zoomAndPan="magnify" viewBox="0 0 375 374.999991" height="500" preserveAspectRatio="xMidYMid meet" version="1.0"><defs><g/><clipPath id="73f2bf7959"><path d="M 31 25.199219 L 344 25.199219 L 344 349.949219 L 31 349.949219 Z M 31 25.199219 " clip-rule="nonzero"/></clipPath></defs><rect x="-37.5" width="450" fill="#ffffff" y="-37.499999" height="449.999989" fill-opacity="1"/><rect x="-37.5" width="450" fill="#a6055d" y="-37.499999" height="449.999989" fill-opacity="1"/><g clip-path="url(#73f2bf7959)"><path fill="#a6055d" d="M 336.179688 187.535156 C 336.179688 170.757812 346.710938 152.480469 341.820312 137.359375 C 336.703125 121.636719 317.296875 113.136719 307.816406 100.046875 C 298.1875 86.882812 296.082031 65.820312 282.84375 56.191406 C 269.753906 46.710938 249.140625 51.074219 233.417969 45.960938 C 218.300781 41.070312 204.234375 25.199219 187.457031 25.199219 C 170.683594 25.199219 156.613281 41.070312 141.496094 45.960938 C 125.773438 51.074219 105.160156 46.636719 92.070312 56.191406 C 78.832031 65.820312 76.648438 86.882812 67.097656 100.046875 C 57.617188 113.136719 38.132812 121.636719 33.09375 137.359375 C 28.203125 152.480469 38.738281 170.757812 38.738281 187.535156 C 38.738281 204.308594 28.203125 222.589844 33.09375 237.710938 C 38.132812 253.355469 57.542969 261.855469 67.097656 274.945312 C 76.726562 288.109375 78.832031 309.25 92.070312 318.804688 C 105.160156 328.28125 125.773438 323.917969 141.496094 329.035156 C 156.613281 333.921875 170.683594 349.796875 187.457031 349.796875 C 204.234375 349.796875 218.300781 333.921875 233.421875 329.035156 C 249.140625 323.917969 269.753906 328.355469 282.84375 318.804688 C 296.007812 309.175781 298.1875 288.109375 307.816406 274.945312 C 317.296875 261.855469 336.78125 253.355469 341.820312 237.632812 C 346.785156 222.515625 336.179688 204.308594 336.179688 187.535156 Z M 336.179688 187.535156 " fill-opacity="1" fill-rule="nonzero"/></g><path fill="#eaeaea" d="M 187.457031 334.148438 C 178.054688 334.148438 169.703125 328.882812 161.578125 323.769531 C 156.238281 320.382812 151.125 317.148438 145.859375 315.492188 C 140.289062 313.6875 133.820312 313.234375 127.578125 312.785156 C 118.175781 312.109375 108.46875 311.429688 101.25 306.164062 C 93.953125 300.824219 90.265625 291.796875 86.730469 282.996094 C 84.398438 277.203125 81.992188 271.261719 78.605469 266.597656 C 75.296875 262.007812 70.40625 257.945312 65.667969 253.957031 C 58.371094 247.867188 50.773438 241.546875 47.988281 232.820312 C 45.28125 224.46875 47.613281 215.140625 49.871094 206.117188 C 51.375 199.945312 53.03125 193.550781 53.03125 187.535156 C 53.03125 181.515625 51.449219 175.121094 49.871094 168.953125 C 47.613281 159.925781 45.28125 150.523438 47.988281 142.25 C 50.847656 133.523438 58.371094 127.203125 65.667969 121.109375 C 70.40625 117.199219 75.296875 113.0625 78.605469 108.472656 C 81.992188 103.808594 84.398438 97.867188 86.730469 92.074219 C 90.265625 83.273438 93.953125 74.246094 101.25 68.902344 C 108.46875 63.636719 118.175781 62.960938 127.578125 62.285156 C 133.820312 61.832031 140.289062 61.382812 145.859375 59.578125 C 151.125 57.847656 156.164062 54.6875 161.578125 51.300781 C 169.703125 46.1875 178.054688 40.921875 187.457031 40.921875 C 196.859375 40.921875 205.210938 46.1875 213.335938 51.300781 C 218.675781 54.6875 223.792969 57.921875 229.058594 59.578125 C 234.625 61.382812 241.09375 61.832031 247.335938 62.285156 C 256.738281 62.960938 266.445312 63.636719 273.664062 68.902344 C 280.960938 74.246094 284.648438 83.273438 288.183594 92.074219 C 290.515625 97.867188 292.921875 103.808594 296.308594 108.472656 C 299.617188 113.0625 304.507812 117.125 309.246094 121.109375 C 316.542969 127.203125 324.140625 133.523438 326.925781 142.25 C 329.632812 150.597656 327.300781 159.925781 325.042969 168.953125 C 323.539062 175.121094 321.886719 181.515625 321.886719 187.535156 C 321.886719 193.550781 323.464844 199.945312 325.042969 206.117188 C 327.300781 215.140625 329.632812 224.546875 326.925781 232.820312 C 324.066406 241.546875 316.542969 247.867188 309.246094 253.957031 C 304.507812 257.871094 299.617188 262.007812 296.308594 266.597656 C 292.921875 271.261719 290.515625 277.203125 288.183594 282.996094 C 284.648438 291.796875 280.960938 300.824219 273.664062 306.164062 C 266.445312 311.429688 256.738281 312.109375 247.335938 312.785156 C 241.09375 313.234375 234.625 313.6875 229.058594 315.492188 C 223.792969 317.222656 218.75 320.382812 213.335938 323.769531 C 205.210938 328.808594 196.859375 334.148438 187.457031 334.148438 Z M 187.457031 43.175781 C 178.730469 43.175781 170.605469 48.292969 162.785156 53.183594 C 157.515625 56.492188 152.101562 59.953125 146.535156 61.683594 C 140.667969 63.5625 134.121094 64.015625 127.726562 64.464844 C 118.25 65.144531 109.296875 65.746094 102.527344 70.632812 C 95.757812 75.597656 92.222656 84.324219 88.761719 92.824219 C 86.355469 98.695312 83.945312 104.863281 80.335938 109.75 C 76.800781 114.566406 71.835938 118.703125 67.019531 122.765625 C 59.949219 128.632812 52.652344 134.726562 50.019531 142.851562 C 47.539062 150.523438 49.644531 159.175781 51.976562 168.351562 C 53.554688 174.671875 55.136719 181.214844 55.136719 187.460938 C 55.136719 193.703125 53.480469 200.246094 51.976562 206.566406 C 49.71875 215.742188 47.539062 224.320312 50.019531 232.066406 C 52.652344 240.191406 59.949219 246.285156 67.019531 252.152344 C 71.835938 256.214844 76.875 260.351562 80.335938 265.167969 C 83.871094 270.058594 86.355469 276.148438 88.761719 282.09375 C 92.148438 290.59375 95.683594 299.320312 102.527344 304.285156 C 109.222656 309.175781 118.175781 309.777344 127.726562 310.453125 C 134.121094 310.902344 140.742188 311.355469 146.535156 313.234375 C 152.101562 315.042969 157.515625 318.425781 162.785156 321.738281 C 170.605469 326.703125 178.730469 331.742188 187.457031 331.742188 C 196.183594 331.742188 204.308594 326.625 212.132812 321.738281 C 217.398438 318.425781 222.8125 314.964844 228.378906 313.234375 C 234.246094 311.355469 240.792969 310.902344 247.1875 310.453125 C 256.664062 309.777344 265.617188 309.175781 272.386719 304.285156 C 279.15625 299.320312 282.691406 290.59375 286.152344 282.09375 C 288.558594 276.226562 290.96875 270.058594 294.578125 265.167969 C 298.113281 260.351562 303.078125 256.214844 307.894531 252.152344 C 314.964844 246.285156 322.261719 240.191406 324.894531 232.066406 C 327.375 224.394531 325.269531 215.742188 322.9375 206.566406 C 321.359375 200.246094 319.777344 193.703125 319.777344 187.460938 C 319.777344 181.140625 321.433594 174.671875 322.9375 168.351562 C 325.195312 159.175781 327.375 150.597656 324.894531 142.851562 C 322.261719 134.726562 314.964844 128.632812 307.894531 122.765625 C 303.078125 118.703125 298.039062 114.566406 294.578125 109.75 C 291.042969 104.863281 288.558594 98.769531 286.152344 92.824219 C 282.769531 84.324219 279.230469 75.597656 272.386719 70.632812 C 265.691406 65.746094 256.738281 65.144531 247.1875 64.464844 C 240.792969 64.015625 234.171875 63.5625 228.378906 61.683594 C 222.8125 59.878906 217.398438 56.492188 212.132812 53.183594 C 204.234375 48.21875 196.183594 43.175781 187.457031 43.175781 Z M 187.457031 43.175781 " fill-opacity="1" fill-rule="nonzero"/><g fill="#eaeaea" fill-opacity="1"><g transform="translate(62.935548, 213.374986)"><g><path d="M 4.5625 0 L 4.5625 -53.109375 L 19.140625 -53.109375 L 19.140625 -32.90625 L 35.296875 -53.109375 L 51.765625 -53.109375 L 32.46875 -29.328125 L 53.109375 0 L 36.34375 0 L 23.1875 -19.515625 L 19.140625 -15.328125 L 19.140625 0 Z M 4.5625 0 "/></g></g></g><g fill="#eaeaea" fill-opacity="1"><g transform="translate(114.540033, 213.374986)"><g><path d="M 30.296875 -27.21875 C 27.546875 -27.21875 25.050781 -26.921875 22.8125 -26.328125 C 20.570312 -25.734375 18.898438 -24.738281 17.796875 -23.34375 L 17.796875 0 L 3.59375 0 L 3.59375 -39.34375 L 16.609375 -39.34375 L 16.609375 -31.859375 C 18.003906 -34.503906 19.75 -36.535156 21.84375 -37.953125 C 23.9375 -39.378906 26.15625 -40.09375 28.5 -40.09375 C 29.050781 -40.09375 29.4375 -40.09375 29.65625 -40.09375 C 29.882812 -40.09375 30.097656 -40.066406 30.296875 -40.015625 Z M 30.296875 -27.21875 "/></g></g></g><g fill="#eaeaea" fill-opacity="1"><g transform="translate(145.652304, 213.374986)"><g><path d="M 3.21875 -13.46875 L 3.21875 -39.34375 L 17.421875 -39.34375 L 17.421875 -16.6875 C 17.421875 -14.988281 17.804688 -13.648438 18.578125 -12.671875 C 19.359375 -11.703125 20.421875 -11.21875 21.765625 -11.21875 C 22.515625 -11.21875 23.257812 -11.316406 24 -11.515625 C 24.75 -11.710938 25.507812 -12.109375 26.28125 -12.703125 C 27.0625 -13.304688 27.828125 -14.160156 28.578125 -15.265625 L 28.578125 -39.34375 L 42.78125 -39.34375 L 42.78125 -15.703125 C 42.78125 -14.359375 42.976562 -13.421875 43.375 -12.890625 C 43.78125 -12.367188 44.476562 -12.0625 45.46875 -11.96875 L 45.46875 0 C 44.226562 0.25 43.109375 0.4375 42.109375 0.5625 C 41.109375 0.6875 40.238281 0.75 39.5 0.75 C 37.101562 0.75 35.207031 0.300781 33.8125 -0.59375 C 32.414062 -1.488281 31.515625 -2.863281 31.109375 -4.71875 L 30.8125 -6.140625 C 28.96875 -3.691406 26.757812 -1.929688 24.1875 -0.859375 C 21.625 0.210938 18.722656 0.75 15.484375 0.75 C 11.546875 0.75 8.515625 -0.46875 6.390625 -2.90625 C 4.273438 -5.351562 3.21875 -8.875 3.21875 -13.46875 Z M 3.21875 -13.46875 "/></g></g></g><g fill="#eaeaea" fill-opacity="1"><g transform="translate(193.367755, 213.374986)"><g><path d="M 67.015625 0 L 52.8125 0 L 52.8125 -22.140625 C 52.8125 -24.085938 52.421875 -25.492188 51.640625 -26.359375 C 50.867188 -27.234375 49.9375 -27.671875 48.84375 -27.671875 C 47.75 -27.671875 46.550781 -27.144531 45.25 -26.09375 C 43.957031 -25.050781 43.007812 -23.707031 42.40625 -22.0625 L 42.40625 0 L 28.203125 0 L 28.203125 -22.140625 C 28.203125 -24.085938 27.8125 -25.492188 27.03125 -26.359375 C 26.257812 -27.234375 25.328125 -27.671875 24.234375 -27.671875 C 23.140625 -27.671875 21.941406 -27.144531 20.640625 -26.09375 C 19.347656 -25.050781 18.398438 -23.707031 17.796875 -22.0625 L 17.796875 0 L 3.59375 0 L 3.59375 -39.34375 L 16.375 -39.34375 L 16.375 -33.515625 C 17.769531 -35.648438 19.691406 -37.28125 22.140625 -38.40625 C 24.585938 -39.53125 27.476562 -40.09375 30.8125 -40.09375 C 34.050781 -40.09375 36.492188 -39.394531 38.140625 -38 C 39.785156 -36.601562 40.882812 -35.03125 41.4375 -33.28125 C 42.832031 -35.425781 44.75 -37.097656 47.1875 -38.296875 C 49.632812 -39.492188 52.378906 -40.09375 55.421875 -40.09375 C 58.015625 -40.09375 60.082031 -39.617188 61.625 -38.671875 C 63.175781 -37.722656 64.335938 -36.5 65.109375 -35 C 65.878906 -33.507812 66.390625 -31.953125 66.640625 -30.328125 C 66.890625 -28.710938 67.015625 -27.226562 67.015625 -25.875 Z M 67.015625 0 "/></g></g></g><g fill="#eaeaea" fill-opacity="1"><g transform="translate(263.669528, 213.374986)"><g><path d="M 28.640625 0.75 C 25.703125 0.75 23.160156 0.164062 21.015625 -1 C 18.867188 -2.175781 17.175781 -3.890625 15.9375 -6.140625 L 15.9375 0 L 3.59375 0 L 3.59375 -54.609375 L 17.796875 -54.609375 L 17.796875 -33.515625 C 18.941406 -35.648438 20.5625 -37.28125 22.65625 -38.40625 C 24.757812 -39.53125 27.226562 -40.09375 30.0625 -40.09375 C 32.457031 -40.09375 34.675781 -39.582031 36.71875 -38.5625 C 38.769531 -37.539062 40.554688 -36.101562 42.078125 -34.25 C 43.597656 -32.40625 44.78125 -30.222656 45.625 -27.703125 C 46.46875 -25.191406 46.890625 -22.460938 46.890625 -19.515625 C 46.890625 -16.628906 46.425781 -13.953125 45.5 -11.484375 C 44.582031 -9.015625 43.3125 -6.859375 41.6875 -5.015625 C 40.070312 -3.171875 38.15625 -1.75 35.9375 -0.75 C 33.71875 0.25 31.285156 0.75 28.640625 0.75 Z M 24.53125 -11.21875 C 25.675781 -11.21875 26.722656 -11.414062 27.671875 -11.8125 C 28.617188 -12.21875 29.441406 -12.78125 30.140625 -13.5 C 30.835938 -14.21875 31.375 -15.078125 31.75 -16.078125 C 32.125 -17.078125 32.3125 -18.203125 32.3125 -19.453125 C 32.3125 -21.046875 32 -22.503906 31.375 -23.828125 C 30.75 -25.148438 29.898438 -26.195312 28.828125 -26.96875 C 27.753906 -27.738281 26.519531 -28.125 25.125 -28.125 C 24.132812 -28.125 23.164062 -27.875 22.21875 -27.375 C 21.269531 -26.875 20.40625 -26.1875 19.625 -25.3125 C 18.851562 -24.445312 18.242188 -23.441406 17.796875 -22.296875 L 17.796875 -15.265625 C 18.242188 -14.609375 18.726562 -14.019531 19.25 -13.5 C 19.78125 -12.976562 20.316406 -12.554688 20.859375 -12.234375 C 21.410156 -11.910156 22 -11.660156 22.625 -11.484375 C 23.25 -11.304688 23.882812 -11.21875 24.53125 -11.21875 Z M 24.53125 -11.21875 "/></g></g></g><g fill="#eaeaea" fill-opacity="1"><g transform="translate(146.907388, 148.480243)"><g><path d="M 9.046875 -0.515625 L 9.046875 0 L 1.53125 0 L 1.53125 -11.359375 L 8.890625 -11.359375 L 8.890625 -10.84375 L 2.09375 -10.84375 L 2.09375 -6.0625 L 8.046875 -6.0625 L 8.046875 -5.546875 L 2.09375 -5.546875 L 2.09375 -0.515625 Z M 9.046875 -0.515625 "/></g></g></g><g fill="#eaeaea" fill-opacity="1"><g transform="translate(156.745026, 148.480243)"><g><path d="M 3.921875 0 L 0.375 -8.3125 L 0.953125 -8.3125 L 4.1875 -0.640625 L 7.4375 -8.3125 L 8.015625 -8.3125 L 4.46875 0 Z M 3.921875 0 "/></g></g></g><g fill="#eaeaea" fill-opacity="1"><g transform="translate(165.12701, 148.480243)"><g><path d="M 4.75 0.15625 C 4.195312 0.15625 3.671875 0.0390625 3.171875 -0.1875 C 2.679688 -0.414062 2.25 -0.726562 1.875 -1.125 C 1.507812 -1.53125 1.222656 -1.992188 1.015625 -2.515625 C 0.804688 -3.046875 0.703125 -3.609375 0.703125 -4.203125 C 0.703125 -4.984375 0.878906 -5.691406 1.234375 -6.328125 C 1.585938 -6.972656 2.0625 -7.488281 2.65625 -7.875 C 3.257812 -8.257812 3.9375 -8.453125 4.6875 -8.453125 C 5.457031 -8.453125 6.140625 -8.253906 6.734375 -7.859375 C 7.335938 -7.472656 7.820312 -6.957031 8.1875 -6.3125 C 8.550781 -5.664062 8.734375 -4.945312 8.734375 -4.15625 C 8.734375 -4.113281 8.734375 -4.070312 8.734375 -4.03125 C 8.734375 -3.988281 8.726562 -3.945312 8.71875 -3.90625 L 1.265625 -3.90625 C 1.316406 -3.226562 1.503906 -2.617188 1.828125 -2.078125 C 2.148438 -1.535156 2.570312 -1.101562 3.09375 -0.78125 C 3.613281 -0.457031 4.175781 -0.296875 4.78125 -0.296875 C 5.394531 -0.296875 5.96875 -0.453125 6.5 -0.765625 C 7.03125 -1.085938 7.40625 -1.492188 7.625 -1.984375 L 8.125 -1.859375 C 7.96875 -1.472656 7.71875 -1.125 7.375 -0.8125 C 7.03125 -0.507812 6.628906 -0.269531 6.171875 -0.09375 C 5.722656 0.0703125 5.25 0.15625 4.75 0.15625 Z M 1.25 -4.375 L 8.1875 -4.375 C 8.144531 -5.070312 7.96875 -5.691406 7.65625 -6.234375 C 7.34375 -6.773438 6.925781 -7.195312 6.40625 -7.5 C 5.894531 -7.8125 5.328125 -7.96875 4.703125 -7.96875 C 4.085938 -7.96875 3.523438 -7.8125 3.015625 -7.5 C 2.503906 -7.195312 2.09375 -6.769531 1.78125 -6.21875 C 1.46875 -5.675781 1.289062 -5.0625 1.25 -4.375 Z M 1.25 -4.375 "/></g></g></g><g fill="#eaeaea" fill-opacity="1"><g transform="translate(174.388781, 148.480243)"><g><path d="M 5.03125 -7.8125 C 4.269531 -7.78125 3.601562 -7.535156 3.03125 -7.078125 C 2.457031 -6.628906 2.0625 -6.015625 1.84375 -5.234375 L 1.84375 0 L 1.296875 0 L 1.296875 -8.3125 L 1.828125 -8.3125 L 1.828125 -6.203125 C 2.109375 -6.796875 2.492188 -7.273438 2.984375 -7.640625 C 3.472656 -8.015625 3.984375 -8.234375 4.515625 -8.296875 C 4.617188 -8.304688 4.710938 -8.3125 4.796875 -8.3125 C 4.890625 -8.3125 4.96875 -8.3125 5.03125 -8.3125 Z M 5.03125 -7.8125 "/></g></g></g><g fill="#eaeaea" fill-opacity="1"><g transform="translate(179.683505, 148.480243)"><g><path d="M 1.9375 3.046875 C 2.101562 3.054688 2.253906 3.054688 2.390625 3.046875 C 2.535156 3.035156 2.632812 2.992188 2.6875 2.921875 C 2.75 2.878906 2.828125 2.785156 2.921875 2.640625 C 3.015625 2.503906 3.144531 2.226562 3.3125 1.8125 C 3.488281 1.40625 3.75 0.800781 4.09375 0 L 0.296875 -8.3125 L 0.890625 -8.3125 L 4.390625 -0.609375 L 7.65625 -8.3125 L 8.21875 -8.3125 L 3.46875 2.8125 C 3.414062 2.945312 3.347656 3.0625 3.265625 3.15625 C 3.179688 3.257812 3.085938 3.335938 2.984375 3.390625 C 2.878906 3.453125 2.75 3.488281 2.59375 3.5 C 2.5 3.519531 2.394531 3.535156 2.28125 3.546875 C 2.175781 3.554688 2.0625 3.554688 1.9375 3.546875 Z M 1.9375 3.046875 "/></g></g></g><g fill="#eaeaea" fill-opacity="1"><g transform="translate(188.289438, 148.480243)"><g/></g></g><g fill="#eaeaea" fill-opacity="1"><g transform="translate(192.432439, 148.480243)"><g><path d="M 1.375 -11.6875 L 1.9375 -11.6875 L 1.9375 -1.421875 C 1.9375 -1.078125 2.023438 -0.820312 2.203125 -0.65625 C 2.378906 -0.5 2.609375 -0.421875 2.890625 -0.421875 C 3.035156 -0.421875 3.191406 -0.4375 3.359375 -0.46875 C 3.535156 -0.5 3.695312 -0.535156 3.84375 -0.578125 L 3.96875 -0.125 C 3.8125 -0.0703125 3.613281 -0.0234375 3.375 0.015625 C 3.132812 0.0546875 2.925781 0.078125 2.75 0.078125 C 2.34375 0.078125 2.007812 -0.046875 1.75 -0.296875 C 1.5 -0.546875 1.375 -0.882812 1.375 -1.3125 Z M 1.375 -11.6875 "/></g></g></g><g fill="#eaeaea" fill-opacity="1"><g transform="translate(196.399488, 148.480243)"><g><path d="M 0.59375 -2.390625 C 0.59375 -2.878906 0.738281 -3.300781 1.03125 -3.65625 C 1.332031 -4.007812 1.738281 -4.289062 2.25 -4.5 C 2.769531 -4.707031 3.367188 -4.8125 4.046875 -4.8125 C 4.492188 -4.8125 4.957031 -4.769531 5.4375 -4.6875 C 5.914062 -4.613281 6.347656 -4.507812 6.734375 -4.375 L 6.734375 -5.25 C 6.734375 -6.0625 6.492188 -6.710938 6.015625 -7.203125 C 5.546875 -7.703125 4.910156 -7.953125 4.109375 -7.953125 C 3.703125 -7.953125 3.269531 -7.863281 2.8125 -7.6875 C 2.363281 -7.519531 1.90625 -7.269531 1.4375 -6.9375 L 1.171875 -7.34375 C 1.710938 -7.71875 2.226562 -7.992188 2.71875 -8.171875 C 3.207031 -8.359375 3.679688 -8.453125 4.140625 -8.453125 C 5.097656 -8.453125 5.859375 -8.160156 6.421875 -7.578125 C 6.992188 -6.992188 7.28125 -6.207031 7.28125 -5.21875 L 7.28125 -0.828125 C 7.28125 -0.710938 7.300781 -0.625 7.34375 -0.5625 C 7.394531 -0.507812 7.46875 -0.484375 7.5625 -0.484375 L 7.5625 0 C 7.488281 0 7.425781 0 7.375 0 C 7.332031 0 7.296875 -0.00390625 7.265625 -0.015625 C 7.117188 -0.046875 7 -0.125 6.90625 -0.25 C 6.820312 -0.382812 6.773438 -0.523438 6.765625 -0.671875 L 6.765625 -1.390625 C 6.378906 -0.898438 5.882812 -0.519531 5.28125 -0.25 C 4.675781 0.0195312 4.023438 0.15625 3.328125 0.15625 C 2.816406 0.15625 2.351562 0.046875 1.9375 -0.171875 C 1.519531 -0.398438 1.191406 -0.707031 0.953125 -1.09375 C 0.710938 -1.488281 0.59375 -1.921875 0.59375 -2.390625 Z M 6.453125 -1.65625 C 6.546875 -1.789062 6.613281 -1.914062 6.65625 -2.03125 C 6.707031 -2.15625 6.734375 -2.269531 6.734375 -2.375 L 6.734375 -3.890625 C 6.316406 -4.046875 5.882812 -4.164062 5.4375 -4.25 C 5 -4.332031 4.546875 -4.375 4.078125 -4.375 C 3.191406 -4.375 2.476562 -4.191406 1.9375 -3.828125 C 1.394531 -3.472656 1.125 -3.003906 1.125 -2.421875 C 1.125 -2.035156 1.222656 -1.679688 1.421875 -1.359375 C 1.617188 -1.035156 1.890625 -0.773438 2.234375 -0.578125 C 2.578125 -0.390625 2.960938 -0.296875 3.390625 -0.296875 C 4.054688 -0.296875 4.660156 -0.421875 5.203125 -0.671875 C 5.753906 -0.929688 6.171875 -1.257812 6.453125 -1.65625 Z M 6.453125 -1.65625 "/></g></g></g><g fill="#eaeaea" fill-opacity="1"><g transform="translate(204.877454, 148.480243)"><g><path d="M 3.8125 0.15625 C 3.164062 0.15625 2.566406 0.046875 2.015625 -0.171875 C 1.472656 -0.390625 0.992188 -0.726562 0.578125 -1.1875 L 0.859375 -1.5625 C 1.304688 -1.132812 1.765625 -0.816406 2.234375 -0.609375 C 2.703125 -0.410156 3.222656 -0.3125 3.796875 -0.3125 C 4.566406 -0.3125 5.191406 -0.476562 5.671875 -0.8125 C 6.160156 -1.144531 6.40625 -1.601562 6.40625 -2.1875 C 6.40625 -2.570312 6.296875 -2.867188 6.078125 -3.078125 C 5.859375 -3.296875 5.539062 -3.472656 5.125 -3.609375 C 4.71875 -3.742188 4.21875 -3.878906 3.625 -4.015625 C 3.050781 -4.160156 2.570312 -4.304688 2.1875 -4.453125 C 1.8125 -4.597656 1.53125 -4.789062 1.34375 -5.03125 C 1.15625 -5.28125 1.0625 -5.625 1.0625 -6.0625 C 1.0625 -6.613281 1.195312 -7.0625 1.46875 -7.40625 C 1.738281 -7.757812 2.097656 -8.019531 2.546875 -8.1875 C 3.003906 -8.363281 3.503906 -8.453125 4.046875 -8.453125 C 4.710938 -8.453125 5.285156 -8.335938 5.765625 -8.109375 C 6.242188 -7.890625 6.585938 -7.609375 6.796875 -7.265625 L 6.453125 -6.953125 C 6.210938 -7.285156 5.867188 -7.535156 5.421875 -7.703125 C 4.984375 -7.878906 4.503906 -7.96875 3.984375 -7.96875 C 3.554688 -7.96875 3.160156 -7.898438 2.796875 -7.765625 C 2.429688 -7.640625 2.132812 -7.445312 1.90625 -7.1875 C 1.6875 -6.925781 1.578125 -6.578125 1.578125 -6.140625 C 1.578125 -5.785156 1.65625 -5.515625 1.8125 -5.328125 C 1.976562 -5.140625 2.222656 -4.988281 2.546875 -4.875 C 2.867188 -4.757812 3.273438 -4.640625 3.765625 -4.515625 C 4.410156 -4.347656 4.96875 -4.179688 5.4375 -4.015625 C 5.914062 -3.859375 6.28125 -3.644531 6.53125 -3.375 C 6.789062 -3.101562 6.921875 -2.726562 6.921875 -2.25 C 6.921875 -1.507812 6.632812 -0.921875 6.0625 -0.484375 C 5.5 -0.0546875 4.75 0.15625 3.8125 0.15625 Z M 3.8125 0.15625 "/></g></g></g><g fill="#eaeaea" fill-opacity="1"><g transform="translate(212.475632, 148.480243)"><g><path d="M 4.75 -0.390625 C 4.726562 -0.378906 4.640625 -0.332031 4.484375 -0.25 C 4.335938 -0.164062 4.148438 -0.0859375 3.921875 -0.015625 C 3.691406 0.046875 3.429688 0.078125 3.140625 0.078125 C 2.859375 0.078125 2.597656 0.0234375 2.359375 -0.078125 C 2.128906 -0.179688 1.941406 -0.335938 1.796875 -0.546875 C 1.660156 -0.753906 1.59375 -1.003906 1.59375 -1.296875 L 1.59375 -7.84375 L 0.421875 -7.84375 L 0.421875 -8.3125 L 1.59375 -8.3125 L 1.59375 -11.1875 L 2.140625 -11.1875 L 2.140625 -8.3125 L 4.109375 -8.3125 L 4.109375 -7.84375 L 2.140625 -7.84375 L 2.140625 -1.375 C 2.160156 -1.0625 2.273438 -0.828125 2.484375 -0.671875 C 2.703125 -0.515625 2.953125 -0.4375 3.234375 -0.4375 C 3.585938 -0.4375 3.890625 -0.492188 4.140625 -0.609375 C 4.390625 -0.734375 4.523438 -0.804688 4.546875 -0.828125 Z M 4.75 -0.390625 "/></g></g></g><g fill="#eaeaea" fill-opacity="1"><g transform="translate(217.386452, 148.480243)"><g><path d="M 1.09375 0 L 1.09375 -1.1875 L 1.578125 -1.1875 L 1.578125 0 Z M 1.09375 0 "/></g></g></g><g fill="#eaeaea" fill-opacity="1"><g transform="translate(220.057812, 148.480243)"><g><path d="M 1.09375 0 L 1.09375 -1.1875 L 1.578125 -1.1875 L 1.578125 0 Z M 1.09375 0 "/></g></g></g><g fill="#eaeaea" fill-opacity="1"><g transform="translate(222.729171, 148.480243)"><g><path d="M 1.09375 0 L 1.09375 -1.1875 L 1.578125 -1.1875 L 1.578125 0 Z M 1.09375 0 "/></g></g></g><g fill="#eaeaea" fill-opacity="1"><g transform="translate(225.400531, 148.480243)"><g><path d="M 1.09375 0 L 1.09375 -1.1875 L 1.578125 -1.1875 L 1.578125 0 Z M 1.09375 0 "/></g></g></g><g fill="#eaeaea" fill-opacity="1"><g transform="translate(147.869072, 239.644715)"><g><path d="M 15.3125 -4.390625 C 15.3125 -3.484375 15.070312 -2.703125 14.59375 -2.046875 C 14.125 -1.390625 13.488281 -0.882812 12.6875 -0.53125 C 11.894531 -0.175781 11.019531 0 10.0625 0 L 1.921875 0 L 1.921875 -17.046875 L 10.703125 -17.046875 C 11.503906 -17.046875 12.195312 -16.832031 12.78125 -16.40625 C 13.363281 -15.976562 13.8125 -15.429688 14.125 -14.765625 C 14.4375 -14.109375 14.59375 -13.421875 14.59375 -12.703125 C 14.59375 -11.867188 14.378906 -11.085938 13.953125 -10.359375 C 13.523438 -9.628906 12.921875 -9.085938 12.140625 -8.734375 C 13.117188 -8.441406 13.890625 -7.914062 14.453125 -7.15625 C 15.023438 -6.40625 15.3125 -5.484375 15.3125 -4.390625 Z M 12.546875 -4.890625 C 12.546875 -5.367188 12.445312 -5.804688 12.25 -6.203125 C 12.050781 -6.597656 11.78125 -6.914062 11.4375 -7.15625 C 11.09375 -7.40625 10.6875 -7.53125 10.21875 -7.53125 L 4.609375 -7.53125 L 4.609375 -2.328125 L 10.0625 -2.328125 C 10.539062 -2.328125 10.96875 -2.441406 11.34375 -2.671875 C 11.71875 -2.910156 12.007812 -3.222656 12.21875 -3.609375 C 12.4375 -4.003906 12.546875 -4.429688 12.546875 -4.890625 Z M 4.609375 -14.71875 L 4.609375 -9.703125 L 9.546875 -9.703125 C 9.992188 -9.703125 10.394531 -9.804688 10.75 -10.015625 C 11.101562 -10.234375 11.382812 -10.53125 11.59375 -10.90625 C 11.800781 -11.28125 11.90625 -11.707031 11.90625 -12.1875 C 11.90625 -12.6875 11.804688 -13.125 11.609375 -13.5 C 11.421875 -13.875 11.160156 -14.171875 10.828125 -14.390625 C 10.503906 -14.609375 10.128906 -14.71875 9.703125 -14.71875 Z M 4.609375 -14.71875 "/></g></g></g><g fill="#eaeaea" fill-opacity="1"><g transform="translate(164.061134, 239.644715)"><g><path d="M 0.671875 -3.671875 C 0.671875 -4.472656 0.898438 -5.171875 1.359375 -5.765625 C 1.816406 -6.367188 2.441406 -6.832031 3.234375 -7.15625 C 4.035156 -7.488281 4.96875 -7.65625 6.03125 -7.65625 C 6.582031 -7.65625 7.148438 -7.613281 7.734375 -7.53125 C 8.316406 -7.457031 8.832031 -7.332031 9.28125 -7.15625 L 9.28125 -7.9375 C 9.28125 -8.820312 9.015625 -9.507812 8.484375 -10 C 7.960938 -10.5 7.207031 -10.75 6.21875 -10.75 C 5.507812 -10.75 4.84375 -10.625 4.21875 -10.375 C 3.59375 -10.132812 2.929688 -9.789062 2.234375 -9.34375 L 1.34375 -11.109375 C 2.175781 -11.671875 3.007812 -12.085938 3.84375 -12.359375 C 4.6875 -12.628906 5.570312 -12.765625 6.5 -12.765625 C 8.1875 -12.765625 9.507812 -12.320312 10.46875 -11.4375 C 11.4375 -10.550781 11.921875 -9.289062 11.921875 -7.65625 L 11.921875 -2.96875 C 11.921875 -2.664062 11.972656 -2.453125 12.078125 -2.328125 C 12.179688 -2.203125 12.363281 -2.128906 12.625 -2.109375 L 12.625 0 C 12.382812 0.0507812 12.164062 0.0820312 11.96875 0.09375 C 11.78125 0.113281 11.625 0.125 11.5 0.125 C 10.9375 0.125 10.507812 -0.0078125 10.21875 -0.28125 C 9.9375 -0.5625 9.769531 -0.882812 9.71875 -1.25 L 9.640625 -1.96875 C 9.097656 -1.257812 8.398438 -0.710938 7.546875 -0.328125 C 6.703125 0.046875 5.847656 0.234375 4.984375 0.234375 C 4.160156 0.234375 3.421875 0.0625 2.765625 -0.28125 C 2.109375 -0.625 1.59375 -1.085938 1.21875 -1.671875 C 0.851562 -2.265625 0.671875 -2.929688 0.671875 -3.671875 Z M 8.65625 -2.90625 C 8.851562 -3.113281 9.003906 -3.320312 9.109375 -3.53125 C 9.222656 -3.738281 9.28125 -3.921875 9.28125 -4.078125 L 9.28125 -5.515625 C 8.832031 -5.691406 8.359375 -5.820312 7.859375 -5.90625 C 7.367188 -6 6.882812 -6.046875 6.40625 -6.046875 C 5.445312 -6.046875 4.664062 -5.851562 4.0625 -5.46875 C 3.46875 -5.082031 3.171875 -4.554688 3.171875 -3.890625 C 3.171875 -3.523438 3.269531 -3.171875 3.46875 -2.828125 C 3.664062 -2.492188 3.953125 -2.222656 4.328125 -2.015625 C 4.703125 -1.804688 5.171875 -1.703125 5.734375 -1.703125 C 6.304688 -1.703125 6.859375 -1.8125 7.390625 -2.03125 C 7.921875 -2.257812 8.34375 -2.550781 8.65625 -2.90625 Z M 8.65625 -2.90625 "/></g></g></g><g fill="#eaeaea" fill-opacity="1"><g transform="translate(177.59051, 239.644715)"><g><path d="M 10.3125 0 L 6.28125 -5.78125 L 4.21875 -3.8125 L 4.21875 0 L 1.578125 0 L 1.578125 -17.515625 L 4.21875 -17.515625 L 4.21875 -6.484375 L 10.03125 -12.53125 L 12.859375 -12.53125 L 7.984375 -7.265625 L 13.125 0 Z M 10.3125 0 "/></g></g></g><g fill="#eaeaea" fill-opacity="1"><g transform="translate(190.736074, 239.644715)"><g><path d="M 7.265625 0.234375 C 6.296875 0.234375 5.414062 0.0625 4.625 -0.28125 C 3.832031 -0.625 3.144531 -1.09375 2.5625 -1.6875 C 1.988281 -2.289062 1.546875 -2.976562 1.234375 -3.75 C 0.921875 -4.53125 0.765625 -5.359375 0.765625 -6.234375 C 0.765625 -7.421875 1.035156 -8.503906 1.578125 -9.484375 C 2.128906 -10.472656 2.890625 -11.265625 3.859375 -11.859375 C 4.835938 -12.460938 5.984375 -12.765625 7.296875 -12.765625 C 8.609375 -12.765625 9.738281 -12.460938 10.6875 -11.859375 C 11.644531 -11.265625 12.382812 -10.476562 12.90625 -9.5 C 13.4375 -8.53125 13.703125 -7.484375 13.703125 -6.359375 C 13.703125 -6.171875 13.691406 -5.988281 13.671875 -5.8125 C 13.660156 -5.644531 13.644531 -5.507812 13.625 -5.40625 L 3.578125 -5.40625 C 3.617188 -4.664062 3.820312 -4.019531 4.1875 -3.46875 C 4.550781 -2.914062 5.007812 -2.484375 5.5625 -2.171875 C 6.125 -1.859375 6.726562 -1.703125 7.375 -1.703125 C 8.070312 -1.703125 8.734375 -1.878906 9.359375 -2.234375 C 9.992188 -2.585938 10.425781 -3.050781 10.65625 -3.625 L 12.90625 -2.96875 C 12.632812 -2.363281 12.222656 -1.816406 11.671875 -1.328125 C 11.117188 -0.835938 10.46875 -0.453125 9.71875 -0.171875 C 8.96875 0.0976562 8.148438 0.234375 7.265625 0.234375 Z M 3.5 -7.15625 L 11.09375 -7.15625 C 11.039062 -7.875 10.832031 -8.507812 10.46875 -9.0625 C 10.113281 -9.613281 9.660156 -10.046875 9.109375 -10.359375 C 8.554688 -10.671875 7.941406 -10.828125 7.265625 -10.828125 C 6.609375 -10.828125 6.003906 -10.671875 5.453125 -10.359375 C 4.898438 -10.046875 4.445312 -9.613281 4.09375 -9.0625 C 3.75 -8.507812 3.550781 -7.875 3.5 -7.15625 Z M 3.5 -7.15625 "/></g></g></g><g fill="#eaeaea" fill-opacity="1"><g transform="translate(205.009075, 239.644715)"><g><path d="M 8.640625 -10.265625 C 7.617188 -10.253906 6.710938 -10.023438 5.921875 -9.578125 C 5.128906 -9.128906 4.5625 -8.5 4.21875 -7.6875 L 4.21875 0 L 1.578125 0 L 1.578125 -12.546875 L 4.03125 -12.546875 L 4.03125 -9.75 C 4.46875 -10.613281 5.035156 -11.300781 5.734375 -11.8125 C 6.441406 -12.332031 7.1875 -12.617188 7.96875 -12.671875 C 8.125 -12.671875 8.253906 -12.671875 8.359375 -12.671875 C 8.460938 -12.671875 8.554688 -12.660156 8.640625 -12.640625 Z M 8.640625 -10.265625 "/></g></g></g><g fill="#eaeaea" fill-opacity="1"><g transform="translate(213.980682, 239.644715)"><g><path d="M 2.015625 2.953125 C 2.253906 2.984375 2.488281 3.019531 2.71875 3.0625 C 2.957031 3.101562 3.144531 3.125 3.28125 3.125 C 3.5625 3.125 3.800781 3.035156 4 2.859375 C 4.195312 2.691406 4.398438 2.382812 4.609375 1.9375 C 4.816406 1.488281 5.070312 0.84375 5.375 0 L 0.21875 -12.546875 L 2.96875 -12.546875 L 6.8125 -2.6875 L 10.21875 -12.546875 L 12.765625 -12.546875 L 7.078125 2.90625 C 6.898438 3.363281 6.644531 3.789062 6.3125 4.1875 C 5.976562 4.582031 5.5625 4.890625 5.0625 5.109375 C 4.5625 5.335938 3.976562 5.453125 3.3125 5.453125 C 3.125 5.453125 2.925781 5.4375 2.71875 5.40625 C 2.507812 5.375 2.273438 5.320312 2.015625 5.25 Z M 2.015625 2.953125 "/></g></g></g><g fill="#eaeaea" fill-opacity="1"><g transform="translate(134.797497, 284.706574)"><g><path d="M 5.84375 -8.4375 C 6.53125 -8.4375 7.175781 -8.304688 7.78125 -8.046875 C 8.394531 -7.796875 8.9375 -7.4375 9.40625 -6.96875 C 9.882812 -6.5 10.257812 -5.9375 10.53125 -5.28125 C 10.800781 -4.625 10.9375 -3.898438 10.9375 -3.109375 C 10.9375 -2.953125 10.921875 -2.738281 10.890625 -2.46875 C 10.867188 -2.195312 10.820312 -1.90625 10.75 -1.59375 C 10.675781 -1.289062 10.566406 -1 10.421875 -0.71875 C 10.273438 -0.445312 10.078125 -0.222656 9.828125 -0.046875 C 9.578125 0.128906 9.265625 0.21875 8.890625 0.21875 C 8.578125 0.21875 8.335938 0.15625 8.171875 0.03125 C 8.015625 -0.0820312 7.90625 -0.238281 7.84375 -0.4375 C 7.78125 -0.632812 7.738281 -0.84375 7.71875 -1.0625 C 7.46875 -0.789062 7.132812 -0.554688 6.71875 -0.359375 C 6.300781 -0.160156 5.84375 -0.0625 5.34375 -0.0625 C 4.6875 -0.0625 4.171875 -0.238281 3.796875 -0.59375 C 3.429688 -0.957031 3.25 -1.410156 3.25 -1.953125 C 3.25 -2.421875 3.378906 -2.789062 3.640625 -3.0625 C 3.898438 -3.332031 4.226562 -3.523438 4.625 -3.640625 C 5.019531 -3.765625 5.425781 -3.828125 5.84375 -3.828125 C 6.25 -3.828125 6.609375 -3.785156 6.921875 -3.703125 C 7.234375 -3.617188 7.460938 -3.550781 7.609375 -3.5 C 7.609375 -3.945312 7.5625 -4.335938 7.46875 -4.671875 C 7.375 -5.015625 7.195312 -5.28125 6.9375 -5.46875 C 6.6875 -5.65625 6.332031 -5.75 5.875 -5.75 C 5.507812 -5.75 5.160156 -5.691406 4.828125 -5.578125 C 4.492188 -5.460938 4.191406 -5.300781 3.921875 -5.09375 L 3.671875 -5.640625 C 4.003906 -5.867188 4.359375 -6.046875 4.734375 -6.171875 C 5.117188 -6.304688 5.53125 -6.375 5.96875 -6.375 C 6.488281 -6.375 6.898438 -6.285156 7.203125 -6.109375 C 7.503906 -5.941406 7.726562 -5.71875 7.875 -5.4375 C 8.03125 -5.15625 8.128906 -4.84375 8.171875 -4.5 C 8.222656 -4.164062 8.25 -3.832031 8.25 -3.5 L 8.25 -1.6875 C 8.25 -1.414062 8.265625 -1.171875 8.296875 -0.953125 C 8.328125 -0.742188 8.394531 -0.582031 8.5 -0.46875 C 8.601562 -0.351562 8.757812 -0.296875 8.96875 -0.296875 C 9.257812 -0.296875 9.5 -0.390625 9.6875 -0.578125 C 9.882812 -0.773438 10.035156 -1.023438 10.140625 -1.328125 C 10.242188 -1.628906 10.316406 -1.941406 10.359375 -2.265625 C 10.410156 -2.597656 10.4375 -2.890625 10.4375 -3.140625 C 10.4375 -3.816406 10.320312 -4.445312 10.09375 -5.03125 C 9.863281 -5.613281 9.535156 -6.125 9.109375 -6.5625 C 8.691406 -7 8.203125 -7.34375 7.640625 -7.59375 C 7.078125 -7.84375 6.472656 -7.96875 5.828125 -7.96875 C 5.179688 -7.96875 4.578125 -7.847656 4.015625 -7.609375 C 3.453125 -7.378906 2.957031 -7.050781 2.53125 -6.625 C 2.101562 -6.195312 1.765625 -5.691406 1.515625 -5.109375 C 1.273438 -4.523438 1.15625 -3.894531 1.15625 -3.21875 C 1.15625 -2.550781 1.269531 -1.925781 1.5 -1.34375 C 1.726562 -0.769531 2.050781 -0.265625 2.46875 0.171875 C 2.882812 0.609375 3.375 0.945312 3.9375 1.1875 C 4.5 1.4375 5.101562 1.5625 5.75 1.5625 C 6.144531 1.5625 6.515625 1.515625 6.859375 1.421875 C 7.203125 1.328125 7.546875 1.195312 7.890625 1.03125 L 8.078125 1.484375 C 7.703125 1.671875 7.316406 1.8125 6.921875 1.90625 C 6.523438 2 6.128906 2.046875 5.734375 2.046875 C 5.035156 2.046875 4.378906 1.914062 3.765625 1.65625 C 3.160156 1.394531 2.625 1.023438 2.15625 0.546875 C 1.6875 0.078125 1.316406 -0.476562 1.046875 -1.125 C 0.785156 -1.769531 0.65625 -2.46875 0.65625 -3.21875 C 0.65625 -4.007812 0.796875 -4.722656 1.078125 -5.359375 C 1.367188 -6.003906 1.753906 -6.554688 2.234375 -7.015625 C 2.722656 -7.472656 3.273438 -7.820312 3.890625 -8.0625 C 4.515625 -8.3125 5.164062 -8.4375 5.84375 -8.4375 Z M 6.6875 -0.984375 C 6.945312 -1.097656 7.140625 -1.234375 7.265625 -1.390625 C 7.398438 -1.546875 7.488281 -1.710938 7.53125 -1.890625 C 7.582031 -2.066406 7.609375 -2.238281 7.609375 -2.40625 L 7.609375 -2.96875 C 7.484375 -2.976562 7.265625 -3.03125 6.953125 -3.125 C 6.640625 -3.226562 6.257812 -3.28125 5.8125 -3.28125 C 5.476562 -3.28125 5.164062 -3.238281 4.875 -3.15625 C 4.582031 -3.082031 4.34375 -2.953125 4.15625 -2.765625 C 3.976562 -2.578125 3.890625 -2.3125 3.890625 -1.96875 C 3.890625 -1.707031 3.953125 -1.476562 4.078125 -1.28125 C 4.210938 -1.09375 4.390625 -0.941406 4.609375 -0.828125 C 4.835938 -0.722656 5.097656 -0.671875 5.390625 -0.671875 C 5.609375 -0.671875 5.832031 -0.703125 6.0625 -0.765625 C 6.300781 -0.828125 6.507812 -0.898438 6.6875 -0.984375 Z M 6.6875 -0.984375 "/></g></g></g><g fill="#eaeaea" fill-opacity="1"><g transform="translate(146.508956, 284.706574)"><g><path d="M 6.265625 0 L 3.5625 -3.734375 L 2 -2.28125 L 2 0 L 1.046875 0 L 1.046875 -10.21875 L 2 -10.21875 L 2 -3.296875 L 6.125 -7.28125 L 7.1875 -7.28125 L 4.203125 -4.296875 L 7.296875 0 Z M 6.265625 0 "/></g></g></g><g fill="#eaeaea" fill-opacity="1"><g transform="translate(153.924819, 284.706574)"><g><path d="M 4.6875 -6.453125 C 4.050781 -6.429688 3.492188 -6.253906 3.015625 -5.921875 C 2.535156 -5.585938 2.195312 -5.125 2 -4.53125 L 2 0 L 1.046875 0 L 1.046875 -7.296875 L 1.953125 -7.296875 L 1.953125 -5.546875 C 2.203125 -6.054688 2.53125 -6.46875 2.9375 -6.78125 C 3.351562 -7.101562 3.796875 -7.285156 4.265625 -7.328125 C 4.359375 -7.335938 4.441406 -7.34375 4.515625 -7.34375 C 4.585938 -7.34375 4.644531 -7.335938 4.6875 -7.328125 Z M 4.6875 -6.453125 "/></g></g></g><g fill="#eaeaea" fill-opacity="1"><g transform="translate(158.836073, 284.706574)"><g><path d="M 0.984375 -3.015625 L 0.984375 -7.296875 L 1.9375 -7.296875 L 1.9375 -3.171875 C 1.9375 -2.347656 2.078125 -1.726562 2.359375 -1.3125 C 2.640625 -0.90625 3.0625 -0.703125 3.625 -0.703125 C 4 -0.703125 4.359375 -0.78125 4.703125 -0.9375 C 5.054688 -1.101562 5.367188 -1.335938 5.640625 -1.640625 C 5.910156 -1.941406 6.117188 -2.296875 6.265625 -2.703125 L 6.265625 -7.296875 L 7.203125 -7.296875 L 7.203125 -1.140625 C 7.203125 -1.015625 7.226562 -0.921875 7.28125 -0.859375 C 7.34375 -0.796875 7.429688 -0.757812 7.546875 -0.75 L 7.546875 0 C 7.429688 0.0078125 7.34375 0.015625 7.28125 0.015625 C 7.21875 0.0234375 7.15625 0.03125 7.09375 0.03125 C 6.90625 0.0078125 6.742188 -0.0625 6.609375 -0.1875 C 6.472656 -0.320312 6.398438 -0.484375 6.390625 -0.671875 L 6.375 -1.65625 C 6.050781 -1.09375 5.613281 -0.648438 5.0625 -0.328125 C 4.519531 -0.015625 3.929688 0.140625 3.296875 0.140625 C 2.535156 0.140625 1.957031 -0.125 1.5625 -0.65625 C 1.175781 -1.1875 0.984375 -1.972656 0.984375 -3.015625 Z M 0.984375 -3.015625 "/></g></g></g><g fill="#eaeaea" fill-opacity="1"><g transform="translate(167.147436, 284.706574)"><g><path d="M 11.90625 0 L 10.953125 0 L 10.953125 -4.078125 C 10.953125 -4.921875 10.816406 -5.539062 10.546875 -5.9375 C 10.273438 -6.34375 9.875 -6.546875 9.34375 -6.546875 C 8.789062 -6.546875 8.296875 -6.347656 7.859375 -5.953125 C 7.421875 -5.566406 7.113281 -5.066406 6.9375 -4.453125 L 6.9375 0 L 5.984375 0 L 5.984375 -4.078125 C 5.984375 -4.929688 5.851562 -5.554688 5.59375 -5.953125 C 5.332031 -6.347656 4.929688 -6.546875 4.390625 -6.546875 C 3.847656 -6.546875 3.359375 -6.351562 2.921875 -5.96875 C 2.484375 -5.59375 2.175781 -5.09375 2 -4.46875 L 2 0 L 1.046875 0 L 1.046875 -7.296875 L 1.921875 -7.296875 L 1.921875 -5.640625 C 2.222656 -6.210938 2.613281 -6.648438 3.09375 -6.953125 C 3.582031 -7.265625 4.117188 -7.421875 4.703125 -7.421875 C 5.304688 -7.421875 5.796875 -7.25 6.171875 -6.90625 C 6.546875 -6.5625 6.773438 -6.109375 6.859375 -5.546875 C 7.191406 -6.160156 7.59375 -6.625 8.0625 -6.9375 C 8.539062 -7.257812 9.078125 -7.421875 9.671875 -7.421875 C 10.085938 -7.421875 10.4375 -7.34375 10.71875 -7.1875 C 11 -7.039062 11.222656 -6.828125 11.390625 -6.546875 C 11.566406 -6.273438 11.695312 -5.945312 11.78125 -5.5625 C 11.863281 -5.175781 11.90625 -4.742188 11.90625 -4.265625 Z M 11.90625 0 "/></g></g></g><g fill="#eaeaea" fill-opacity="1"><g transform="translate(180.006257, 284.706574)"><g><path d="M 4.625 0.140625 C 4.050781 0.140625 3.519531 -0.00390625 3.03125 -0.296875 C 2.550781 -0.585938 2.175781 -0.957031 1.90625 -1.40625 L 1.90625 0 L 1.046875 0 L 1.046875 -10.21875 L 2 -10.21875 L 2 -5.765625 C 2.320312 -6.265625 2.710938 -6.664062 3.171875 -6.96875 C 3.628906 -7.269531 4.164062 -7.421875 4.78125 -7.421875 C 5.289062 -7.421875 5.75 -7.3125 6.15625 -7.09375 C 6.5625 -6.882812 6.90625 -6.597656 7.1875 -6.234375 C 7.476562 -5.878906 7.695312 -5.472656 7.84375 -5.015625 C 8 -4.566406 8.078125 -4.101562 8.078125 -3.625 C 8.078125 -3.113281 7.988281 -2.632812 7.8125 -2.1875 C 7.644531 -1.738281 7.398438 -1.335938 7.078125 -0.984375 C 6.765625 -0.640625 6.398438 -0.363281 5.984375 -0.15625 C 5.566406 0.0390625 5.113281 0.140625 4.625 0.140625 Z M 4.390625 -0.703125 C 4.785156 -0.703125 5.148438 -0.78125 5.484375 -0.9375 C 5.816406 -1.09375 6.101562 -1.3125 6.34375 -1.59375 C 6.59375 -1.875 6.78125 -2.1875 6.90625 -2.53125 C 7.039062 -2.882812 7.109375 -3.25 7.109375 -3.625 C 7.109375 -4.132812 7 -4.613281 6.78125 -5.0625 C 6.5625 -5.519531 6.257812 -5.882812 5.875 -6.15625 C 5.488281 -6.4375 5.035156 -6.578125 4.515625 -6.578125 C 4.140625 -6.578125 3.789062 -6.492188 3.46875 -6.328125 C 3.144531 -6.160156 2.859375 -5.9375 2.609375 -5.65625 C 2.359375 -5.382812 2.15625 -5.085938 2 -4.765625 L 2 -2.484375 C 2.039062 -2.234375 2.140625 -2 2.296875 -1.78125 C 2.453125 -1.5625 2.648438 -1.375 2.890625 -1.21875 C 3.128906 -1.0625 3.378906 -0.9375 3.640625 -0.84375 C 3.898438 -0.75 4.148438 -0.703125 4.390625 -0.703125 Z M 4.390625 -0.703125 "/></g></g></g><g fill="#eaeaea" fill-opacity="1"><g transform="translate(188.639439, 284.706574)"><g><path d="M 0.90625 0.875 L 0.90625 0 L 6.25 0 L 6.25 0.875 Z M 0.90625 0.875 "/></g></g></g><g fill="#eaeaea" fill-opacity="1"><g transform="translate(195.789444, 284.706574)"><g><path d="M 4.625 0.140625 C 4.050781 0.140625 3.519531 -0.00390625 3.03125 -0.296875 C 2.550781 -0.585938 2.175781 -0.957031 1.90625 -1.40625 L 1.90625 0 L 1.046875 0 L 1.046875 -10.21875 L 2 -10.21875 L 2 -5.765625 C 2.320312 -6.265625 2.710938 -6.664062 3.171875 -6.96875 C 3.628906 -7.269531 4.164062 -7.421875 4.78125 -7.421875 C 5.289062 -7.421875 5.75 -7.3125 6.15625 -7.09375 C 6.5625 -6.882812 6.90625 -6.597656 7.1875 -6.234375 C 7.476562 -5.878906 7.695312 -5.472656 7.84375 -5.015625 C 8 -4.566406 8.078125 -4.101562 8.078125 -3.625 C 8.078125 -3.113281 7.988281 -2.632812 7.8125 -2.1875 C 7.644531 -1.738281 7.398438 -1.335938 7.078125 -0.984375 C 6.765625 -0.640625 6.398438 -0.363281 5.984375 -0.15625 C 5.566406 0.0390625 5.113281 0.140625 4.625 0.140625 Z M 4.390625 -0.703125 C 4.785156 -0.703125 5.148438 -0.78125 5.484375 -0.9375 C 5.816406 -1.09375 6.101562 -1.3125 6.34375 -1.59375 C 6.59375 -1.875 6.78125 -2.1875 6.90625 -2.53125 C 7.039062 -2.882812 7.109375 -3.25 7.109375 -3.625 C 7.109375 -4.132812 7 -4.613281 6.78125 -5.0625 C 6.5625 -5.519531 6.257812 -5.882812 5.875 -6.15625 C 5.488281 -6.4375 5.035156 -6.578125 4.515625 -6.578125 C 4.140625 -6.578125 3.789062 -6.492188 3.46875 -6.328125 C 3.144531 -6.160156 2.859375 -5.9375 2.609375 -5.65625 C 2.359375 -5.382812 2.15625 -5.085938 2 -4.765625 L 2 -2.484375 C 2.039062 -2.234375 2.140625 -2 2.296875 -1.78125 C 2.453125 -1.5625 2.648438 -1.375 2.890625 -1.21875 C 3.128906 -1.0625 3.378906 -0.9375 3.640625 -0.84375 C 3.898438 -0.75 4.148438 -0.703125 4.390625 -0.703125 Z M 4.390625 -0.703125 "/></g></g></g><g fill="#eaeaea" fill-opacity="1"><g transform="translate(204.422626, 284.706574)"><g><path d="M 0.46875 -2.09375 C 0.46875 -2.550781 0.597656 -2.945312 0.859375 -3.28125 C 1.117188 -3.613281 1.476562 -3.867188 1.9375 -4.046875 C 2.394531 -4.234375 2.929688 -4.328125 3.546875 -4.328125 C 3.898438 -4.328125 4.265625 -4.296875 4.640625 -4.234375 C 5.023438 -4.179688 5.367188 -4.097656 5.671875 -3.984375 L 5.671875 -4.609375 C 5.671875 -5.222656 5.488281 -5.710938 5.125 -6.078125 C 4.757812 -6.441406 4.253906 -6.625 3.609375 -6.625 C 3.222656 -6.625 2.835938 -6.550781 2.453125 -6.40625 C 2.078125 -6.257812 1.6875 -6.046875 1.28125 -5.765625 L 0.90625 -6.4375 C 1.382812 -6.769531 1.851562 -7.015625 2.3125 -7.171875 C 2.769531 -7.335938 3.234375 -7.421875 3.703125 -7.421875 C 4.597656 -7.421875 5.304688 -7.160156 5.828125 -6.640625 C 6.359375 -6.128906 6.625 -5.421875 6.625 -4.515625 L 6.625 -1.140625 C 6.625 -1.015625 6.648438 -0.921875 6.703125 -0.859375 C 6.765625 -0.796875 6.851562 -0.757812 6.96875 -0.75 L 6.96875 0 C 6.863281 0.0078125 6.773438 0.0195312 6.703125 0.03125 C 6.628906 0.0390625 6.570312 0.0390625 6.53125 0.03125 C 6.300781 0.0195312 6.125 -0.0507812 6 -0.1875 C 5.882812 -0.332031 5.820312 -0.484375 5.8125 -0.640625 L 5.796875 -1.171875 C 5.472656 -0.753906 5.046875 -0.429688 4.515625 -0.203125 C 3.992188 0.0234375 3.460938 0.140625 2.921875 0.140625 C 2.453125 0.140625 2.03125 0.0390625 1.65625 -0.15625 C 1.28125 -0.363281 0.988281 -0.632812 0.78125 -0.96875 C 0.570312 -1.3125 0.46875 -1.6875 0.46875 -2.09375 Z M 5.34375 -1.546875 C 5.445312 -1.671875 5.523438 -1.789062 5.578125 -1.90625 C 5.640625 -2.03125 5.671875 -2.140625 5.671875 -2.234375 L 5.671875 -3.296875 C 5.347656 -3.421875 5.015625 -3.515625 4.671875 -3.578125 C 4.335938 -3.648438 4 -3.6875 3.65625 -3.6875 C 2.96875 -3.6875 2.414062 -3.550781 2 -3.28125 C 1.582031 -3.007812 1.375 -2.640625 1.375 -2.171875 C 1.375 -1.898438 1.441406 -1.644531 1.578125 -1.40625 C 1.722656 -1.164062 1.929688 -0.96875 2.203125 -0.8125 C 2.472656 -0.664062 2.789062 -0.59375 3.15625 -0.59375 C 3.613281 -0.59375 4.039062 -0.679688 4.4375 -0.859375 C 4.832031 -1.035156 5.132812 -1.265625 5.34375 -1.546875 Z M 5.34375 -1.546875 "/></g></g></g><g fill="#eaeaea" fill-opacity="1"><g transform="translate(212.048373, 284.706574)"><g><path d="M 6.265625 0 L 3.5625 -3.734375 L 2 -2.28125 L 2 0 L 1.046875 0 L 1.046875 -10.21875 L 2 -10.21875 L 2 -3.296875 L 6.125 -7.28125 L 7.1875 -7.28125 L 4.203125 -4.296875 L 7.296875 0 Z M 6.265625 0 "/></g></g></g><g fill="#eaeaea" fill-opacity="1"><g transform="translate(219.464236, 284.706574)"><g><path d="M 4.203125 0.140625 C 3.679688 0.140625 3.195312 0.0390625 2.75 -0.15625 C 2.300781 -0.363281 1.910156 -0.640625 1.578125 -0.984375 C 1.253906 -1.335938 1 -1.742188 0.8125 -2.203125 C 0.632812 -2.660156 0.546875 -3.148438 0.546875 -3.671875 C 0.546875 -4.347656 0.703125 -4.96875 1.015625 -5.53125 C 1.328125 -6.101562 1.757812 -6.5625 2.3125 -6.90625 C 2.863281 -7.25 3.488281 -7.421875 4.1875 -7.421875 C 4.90625 -7.421875 5.53125 -7.25 6.0625 -6.90625 C 6.601562 -6.5625 7.023438 -6.101562 7.328125 -5.53125 C 7.640625 -4.96875 7.796875 -4.351562 7.796875 -3.6875 C 7.796875 -3.601562 7.796875 -3.523438 7.796875 -3.453125 C 7.796875 -3.390625 7.789062 -3.335938 7.78125 -3.296875 L 1.546875 -3.296875 C 1.585938 -2.773438 1.734375 -2.3125 1.984375 -1.90625 C 2.234375 -1.5 2.554688 -1.175781 2.953125 -0.9375 C 3.347656 -0.707031 3.773438 -0.59375 4.234375 -0.59375 C 4.710938 -0.59375 5.164062 -0.710938 5.59375 -0.953125 C 6.019531 -1.191406 6.316406 -1.507812 6.484375 -1.90625 L 7.3125 -1.6875 C 7.15625 -1.332031 6.921875 -1.015625 6.609375 -0.734375 C 6.304688 -0.460938 5.945312 -0.25 5.53125 -0.09375 C 5.113281 0.0625 4.671875 0.140625 4.203125 0.140625 Z M 1.515625 -3.984375 L 6.90625 -3.984375 C 6.863281 -4.515625 6.71875 -4.976562 6.46875 -5.375 C 6.226562 -5.78125 5.90625 -6.097656 5.5 -6.328125 C 5.101562 -6.554688 4.671875 -6.671875 4.203125 -6.671875 C 3.722656 -6.671875 3.285156 -6.554688 2.890625 -6.328125 C 2.503906 -6.097656 2.1875 -5.78125 1.9375 -5.375 C 1.6875 -4.976562 1.546875 -4.515625 1.515625 -3.984375 Z M 1.515625 -3.984375 "/></g></g></g><g fill="#eaeaea" fill-opacity="1"><g transform="translate(227.677648, 284.706574)"><g><path d="M 4.6875 -6.453125 C 4.050781 -6.429688 3.492188 -6.253906 3.015625 -5.921875 C 2.535156 -5.585938 2.195312 -5.125 2 -4.53125 L 2 0 L 1.046875 0 L 1.046875 -7.296875 L 1.953125 -7.296875 L 1.953125 -5.546875 C 2.203125 -6.054688 2.53125 -6.46875 2.9375 -6.78125 C 3.351562 -7.101562 3.796875 -7.285156 4.265625 -7.328125 C 4.359375 -7.335938 4.441406 -7.34375 4.515625 -7.34375 C 4.585938 -7.34375 4.644531 -7.335938 4.6875 -7.328125 Z M 4.6875 -6.453125 "/></g></g></g><g fill="#eaeaea" fill-opacity="1"><g transform="translate(232.588903, 284.706574)"><g><path d="M 1.46875 2.234375 C 1.601562 2.242188 1.726562 2.25 1.84375 2.25 C 1.96875 2.257812 2.054688 2.253906 2.109375 2.234375 C 2.222656 2.222656 2.332031 2.160156 2.4375 2.046875 C 2.539062 1.929688 2.660156 1.710938 2.796875 1.390625 C 2.941406 1.078125 3.140625 0.613281 3.390625 0 L 0.203125 -7.296875 L 1.21875 -7.296875 L 3.890625 -0.984375 L 6.359375 -7.296875 L 7.3125 -7.296875 L 3.53125 2.109375 C 3.46875 2.285156 3.367188 2.453125 3.234375 2.609375 C 3.097656 2.765625 2.9375 2.882812 2.75 2.96875 C 2.5625 3.0625 2.328125 3.113281 2.046875 3.125 C 1.960938 3.132812 1.875 3.132812 1.78125 3.125 C 1.695312 3.125 1.59375 3.113281 1.46875 3.09375 Z M 1.46875 2.234375 "/></g></g></g><g fill="#eaeaea" fill-opacity="1"><g transform="translate(106.471373, 268.006593)"><g><path d="M 7.1875 0 L 6.234375 0 L 6.234375 -4.078125 C 6.234375 -4.898438 6.085938 -5.515625 5.796875 -5.921875 C 5.503906 -6.335938 5.085938 -6.546875 4.546875 -6.546875 C 4.191406 -6.546875 3.835938 -6.453125 3.484375 -6.265625 C 3.140625 -6.085938 2.832031 -5.84375 2.5625 -5.53125 C 2.300781 -5.21875 2.113281 -4.863281 2 -4.46875 L 2 0 L 1.046875 0 L 1.046875 -10.21875 L 2 -10.21875 L 2 -5.640625 C 2.289062 -6.179688 2.691406 -6.613281 3.203125 -6.9375 C 3.722656 -7.257812 4.28125 -7.421875 4.875 -7.421875 C 5.289062 -7.421875 5.644531 -7.34375 5.9375 -7.1875 C 6.238281 -7.039062 6.476562 -6.828125 6.65625 -6.546875 C 6.84375 -6.265625 6.976562 -5.929688 7.0625 -5.546875 C 7.144531 -5.171875 7.1875 -4.742188 7.1875 -4.265625 Z M 7.1875 0 "/></g></g></g><g fill="#eaeaea" fill-opacity="1"><g transform="translate(114.628824, 268.006593)"><g><path d="M 4.203125 0.140625 C 3.679688 0.140625 3.195312 0.0390625 2.75 -0.15625 C 2.300781 -0.363281 1.910156 -0.640625 1.578125 -0.984375 C 1.253906 -1.335938 1 -1.742188 0.8125 -2.203125 C 0.632812 -2.660156 0.546875 -3.148438 0.546875 -3.671875 C 0.546875 -4.347656 0.703125 -4.96875 1.015625 -5.53125 C 1.328125 -6.101562 1.757812 -6.5625 2.3125 -6.90625 C 2.863281 -7.25 3.488281 -7.421875 4.1875 -7.421875 C 4.90625 -7.421875 5.53125 -7.25 6.0625 -6.90625 C 6.601562 -6.5625 7.023438 -6.101562 7.328125 -5.53125 C 7.640625 -4.96875 7.796875 -4.351562 7.796875 -3.6875 C 7.796875 -3.601562 7.796875 -3.523438 7.796875 -3.453125 C 7.796875 -3.390625 7.789062 -3.335938 7.78125 -3.296875 L 1.546875 -3.296875 C 1.585938 -2.773438 1.734375 -2.3125 1.984375 -1.90625 C 2.234375 -1.5 2.554688 -1.175781 2.953125 -0.9375 C 3.347656 -0.707031 3.773438 -0.59375 4.234375 -0.59375 C 4.710938 -0.59375 5.164062 -0.710938 5.59375 -0.953125 C 6.019531 -1.191406 6.316406 -1.507812 6.484375 -1.90625 L 7.3125 -1.6875 C 7.15625 -1.332031 6.921875 -1.015625 6.609375 -0.734375 C 6.304688 -0.460938 5.945312 -0.25 5.53125 -0.09375 C 5.113281 0.0625 4.671875 0.140625 4.203125 0.140625 Z M 1.515625 -3.984375 L 6.90625 -3.984375 C 6.863281 -4.515625 6.71875 -4.976562 6.46875 -5.375 C 6.226562 -5.78125 5.90625 -6.097656 5.5 -6.328125 C 5.101562 -6.554688 4.671875 -6.671875 4.203125 -6.671875 C 3.722656 -6.671875 3.285156 -6.554688 2.890625 -6.328125 C 2.503906 -6.097656 2.1875 -5.78125 1.9375 -5.375 C 1.6875 -4.976562 1.546875 -4.515625 1.515625 -3.984375 Z M 1.515625 -3.984375 "/></g></g></g><g fill="#eaeaea" fill-opacity="1"><g transform="translate(122.842237, 268.006593)"><g><path d="M 1.09375 -10.21875 L 2.046875 -10.21875 L 2.046875 -1.65625 C 2.046875 -1.289062 2.109375 -1.050781 2.234375 -0.9375 C 2.367188 -0.820312 2.53125 -0.765625 2.71875 -0.765625 C 2.882812 -0.765625 3.050781 -0.78125 3.21875 -0.8125 C 3.382812 -0.851562 3.53125 -0.894531 3.65625 -0.9375 L 3.828125 -0.171875 C 3.648438 -0.0976562 3.429688 -0.0390625 3.171875 0 C 2.910156 0.0507812 2.6875 0.078125 2.5 0.078125 C 2.070312 0.078125 1.726562 -0.046875 1.46875 -0.296875 C 1.21875 -0.546875 1.09375 -0.890625 1.09375 -1.328125 Z M 1.09375 -10.21875 "/></g></g></g><g fill="#eaeaea" fill-opacity="1"><g transform="translate(126.648118, 268.006593)"><g><path d="M 1.09375 -10.21875 L 2.046875 -10.21875 L 2.046875 -1.65625 C 2.046875 -1.289062 2.109375 -1.050781 2.234375 -0.9375 C 2.367188 -0.820312 2.53125 -0.765625 2.71875 -0.765625 C 2.882812 -0.765625 3.050781 -0.78125 3.21875 -0.8125 C 3.382812 -0.851562 3.53125 -0.894531 3.65625 -0.9375 L 3.828125 -0.171875 C 3.648438 -0.0976562 3.429688 -0.0390625 3.171875 0 C 2.910156 0.0507812 2.6875 0.078125 2.5 0.078125 C 2.070312 0.078125 1.726562 -0.046875 1.46875 -0.296875 C 1.21875 -0.546875 1.09375 -0.890625 1.09375 -1.328125 Z M 1.09375 -10.21875 "/></g></g></g><g fill="#eaeaea" fill-opacity="1"><g transform="translate(130.454, 268.006593)"><g><path d="M 4.15625 0.140625 C 3.632812 0.140625 3.148438 0.0390625 2.703125 -0.15625 C 2.265625 -0.363281 1.882812 -0.640625 1.5625 -0.984375 C 1.238281 -1.335938 0.988281 -1.738281 0.8125 -2.1875 C 0.632812 -2.644531 0.546875 -3.125 0.546875 -3.625 C 0.546875 -4.144531 0.632812 -4.628906 0.8125 -5.078125 C 0.988281 -5.535156 1.238281 -5.9375 1.5625 -6.28125 C 1.894531 -6.632812 2.28125 -6.910156 2.71875 -7.109375 C 3.164062 -7.316406 3.648438 -7.421875 4.171875 -7.421875 C 4.691406 -7.421875 5.171875 -7.316406 5.609375 -7.109375 C 6.046875 -6.910156 6.425781 -6.632812 6.75 -6.28125 C 7.082031 -5.9375 7.335938 -5.535156 7.515625 -5.078125 C 7.691406 -4.628906 7.78125 -4.144531 7.78125 -3.625 C 7.78125 -3.125 7.691406 -2.644531 7.515625 -2.1875 C 7.335938 -1.738281 7.085938 -1.335938 6.765625 -0.984375 C 6.441406 -0.640625 6.054688 -0.363281 5.609375 -0.15625 C 5.171875 0.0390625 4.6875 0.140625 4.15625 0.140625 Z M 1.515625 -3.609375 C 1.515625 -3.066406 1.628906 -2.570312 1.859375 -2.125 C 2.097656 -1.6875 2.421875 -1.335938 2.828125 -1.078125 C 3.234375 -0.828125 3.675781 -0.703125 4.15625 -0.703125 C 4.644531 -0.703125 5.085938 -0.832031 5.484375 -1.09375 C 5.890625 -1.351562 6.210938 -1.707031 6.453125 -2.15625 C 6.691406 -2.613281 6.8125 -3.109375 6.8125 -3.640625 C 6.8125 -4.179688 6.691406 -4.675781 6.453125 -5.125 C 6.210938 -5.570312 5.890625 -5.925781 5.484375 -6.1875 C 5.085938 -6.445312 4.644531 -6.578125 4.15625 -6.578125 C 3.675781 -6.578125 3.234375 -6.441406 2.828125 -6.171875 C 2.429688 -5.898438 2.113281 -5.539062 1.875 -5.09375 C 1.632812 -4.65625 1.515625 -4.160156 1.515625 -3.609375 Z M 1.515625 -3.609375 "/></g></g></g><g fill="#eaeaea" fill-opacity="1"><g transform="translate(138.779347, 268.006593)"><g><path d="M 5.84375 -8.4375 C 6.53125 -8.4375 7.175781 -8.304688 7.78125 -8.046875 C 8.394531 -7.796875 8.9375 -7.4375 9.40625 -6.96875 C 9.882812 -6.5 10.257812 -5.9375 10.53125 -5.28125 C 10.800781 -4.625 10.9375 -3.898438 10.9375 -3.109375 C 10.9375 -2.953125 10.921875 -2.738281 10.890625 -2.46875 C 10.867188 -2.195312 10.820312 -1.90625 10.75 -1.59375 C 10.675781 -1.289062 10.566406 -1 10.421875 -0.71875 C 10.273438 -0.445312 10.078125 -0.222656 9.828125 -0.046875 C 9.578125 0.128906 9.265625 0.21875 8.890625 0.21875 C 8.578125 0.21875 8.335938 0.15625 8.171875 0.03125 C 8.015625 -0.0820312 7.90625 -0.238281 7.84375 -0.4375 C 7.78125 -0.632812 7.738281 -0.84375 7.71875 -1.0625 C 7.46875 -0.789062 7.132812 -0.554688 6.71875 -0.359375 C 6.300781 -0.160156 5.84375 -0.0625 5.34375 -0.0625 C 4.6875 -0.0625 4.171875 -0.238281 3.796875 -0.59375 C 3.429688 -0.957031 3.25 -1.410156 3.25 -1.953125 C 3.25 -2.421875 3.378906 -2.789062 3.640625 -3.0625 C 3.898438 -3.332031 4.226562 -3.523438 4.625 -3.640625 C 5.019531 -3.765625 5.425781 -3.828125 5.84375 -3.828125 C 6.25 -3.828125 6.609375 -3.785156 6.921875 -3.703125 C 7.234375 -3.617188 7.460938 -3.550781 7.609375 -3.5 C 7.609375 -3.945312 7.5625 -4.335938 7.46875 -4.671875 C 7.375 -5.015625 7.195312 -5.28125 6.9375 -5.46875 C 6.6875 -5.65625 6.332031 -5.75 5.875 -5.75 C 5.507812 -5.75 5.160156 -5.691406 4.828125 -5.578125 C 4.492188 -5.460938 4.191406 -5.300781 3.921875 -5.09375 L 3.671875 -5.640625 C 4.003906 -5.867188 4.359375 -6.046875 4.734375 -6.171875 C 5.117188 -6.304688 5.53125 -6.375 5.96875 -6.375 C 6.488281 -6.375 6.898438 -6.285156 7.203125 -6.109375 C 7.503906 -5.941406 7.726562 -5.71875 7.875 -5.4375 C 8.03125 -5.15625 8.128906 -4.84375 8.171875 -4.5 C 8.222656 -4.164062 8.25 -3.832031 8.25 -3.5 L 8.25 -1.6875 C 8.25 -1.414062 8.265625 -1.171875 8.296875 -0.953125 C 8.328125 -0.742188 8.394531 -0.582031 8.5 -0.46875 C 8.601562 -0.351562 8.757812 -0.296875 8.96875 -0.296875 C 9.257812 -0.296875 9.5 -0.390625 9.6875 -0.578125 C 9.882812 -0.773438 10.035156 -1.023438 10.140625 -1.328125 C 10.242188 -1.628906 10.316406 -1.941406 10.359375 -2.265625 C 10.410156 -2.597656 10.4375 -2.890625 10.4375 -3.140625 C 10.4375 -3.816406 10.320312 -4.445312 10.09375 -5.03125 C 9.863281 -5.613281 9.535156 -6.125 9.109375 -6.5625 C 8.691406 -7 8.203125 -7.34375 7.640625 -7.59375 C 7.078125 -7.84375 6.472656 -7.96875 5.828125 -7.96875 C 5.179688 -7.96875 4.578125 -7.847656 4.015625 -7.609375 C 3.453125 -7.378906 2.957031 -7.050781 2.53125 -6.625 C 2.101562 -6.195312 1.765625 -5.691406 1.515625 -5.109375 C 1.273438 -4.523438 1.15625 -3.894531 1.15625 -3.21875 C 1.15625 -2.550781 1.269531 -1.925781 1.5 -1.34375 C 1.726562 -0.769531 2.050781 -0.265625 2.46875 0.171875 C 2.882812 0.609375 3.375 0.945312 3.9375 1.1875 C 4.5 1.4375 5.101562 1.5625 5.75 1.5625 C 6.144531 1.5625 6.515625 1.515625 6.859375 1.421875 C 7.203125 1.328125 7.546875 1.195312 7.890625 1.03125 L 8.078125 1.484375 C 7.703125 1.671875 7.316406 1.8125 6.921875 1.90625 C 6.523438 2 6.128906 2.046875 5.734375 2.046875 C 5.035156 2.046875 4.378906 1.914062 3.765625 1.65625 C 3.160156 1.394531 2.625 1.023438 2.15625 0.546875 C 1.6875 0.078125 1.316406 -0.476562 1.046875 -1.125 C 0.785156 -1.769531 0.65625 -2.46875 0.65625 -3.21875 C 0.65625 -4.007812 0.796875 -4.722656 1.078125 -5.359375 C 1.367188 -6.003906 1.753906 -6.554688 2.234375 -7.015625 C 2.722656 -7.472656 3.273438 -7.820312 3.890625 -8.0625 C 4.515625 -8.3125 5.164062 -8.4375 5.84375 -8.4375 Z M 6.6875 -0.984375 C 6.945312 -1.097656 7.140625 -1.234375 7.265625 -1.390625 C 7.398438 -1.546875 7.488281 -1.710938 7.53125 -1.890625 C 7.582031 -2.066406 7.609375 -2.238281 7.609375 -2.40625 L 7.609375 -2.96875 C 7.484375 -2.976562 7.265625 -3.03125 6.953125 -3.125 C 6.640625 -3.226562 6.257812 -3.28125 5.8125 -3.28125 C 5.476562 -3.28125 5.164062 -3.238281 4.875 -3.15625 C 4.582031 -3.082031 4.34375 -2.953125 4.15625 -2.765625 C 3.976562 -2.578125 3.890625 -2.3125 3.890625 -1.96875 C 3.890625 -1.707031 3.953125 -1.476562 4.078125 -1.28125 C 4.210938 -1.09375 4.390625 -0.941406 4.609375 -0.828125 C 4.835938 -0.722656 5.097656 -0.671875 5.390625 -0.671875 C 5.609375 -0.671875 5.832031 -0.703125 6.0625 -0.765625 C 6.300781 -0.828125 6.507812 -0.898438 6.6875 -0.984375 Z M 6.6875 -0.984375 "/></g></g></g><g fill="#eaeaea" fill-opacity="1"><g transform="translate(150.490806, 268.006593)"><g><path d="M 6.265625 0 L 3.5625 -3.734375 L 2 -2.28125 L 2 0 L 1.046875 0 L 1.046875 -10.21875 L 2 -10.21875 L 2 -3.296875 L 6.125 -7.28125 L 7.1875 -7.28125 L 4.203125 -4.296875 L 7.296875 0 Z M 6.265625 0 "/></g></g></g><g fill="#eaeaea" fill-opacity="1"><g transform="translate(157.906669, 268.006593)"><g><path d="M 4.6875 -6.453125 C 4.050781 -6.429688 3.492188 -6.253906 3.015625 -5.921875 C 2.535156 -5.585938 2.195312 -5.125 2 -4.53125 L 2 0 L 1.046875 0 L 1.046875 -7.296875 L 1.953125 -7.296875 L 1.953125 -5.546875 C 2.203125 -6.054688 2.53125 -6.46875 2.9375 -6.78125 C 3.351562 -7.101562 3.796875 -7.285156 4.265625 -7.328125 C 4.359375 -7.335938 4.441406 -7.34375 4.515625 -7.34375 C 4.585938 -7.34375 4.644531 -7.335938 4.6875 -7.328125 Z M 4.6875 -6.453125 "/></g></g></g><g fill="#eaeaea" fill-opacity="1"><g transform="translate(162.817924, 268.006593)"><g><path d="M 0.984375 -3.015625 L 0.984375 -7.296875 L 1.9375 -7.296875 L 1.9375 -3.171875 C 1.9375 -2.347656 2.078125 -1.726562 2.359375 -1.3125 C 2.640625 -0.90625 3.0625 -0.703125 3.625 -0.703125 C 4 -0.703125 4.359375 -0.78125 4.703125 -0.9375 C 5.054688 -1.101562 5.367188 -1.335938 5.640625 -1.640625 C 5.910156 -1.941406 6.117188 -2.296875 6.265625 -2.703125 L 6.265625 -7.296875 L 7.203125 -7.296875 L 7.203125 -1.140625 C 7.203125 -1.015625 7.226562 -0.921875 7.28125 -0.859375 C 7.34375 -0.796875 7.429688 -0.757812 7.546875 -0.75 L 7.546875 0 C 7.429688 0.0078125 7.34375 0.015625 7.28125 0.015625 C 7.21875 0.0234375 7.15625 0.03125 7.09375 0.03125 C 6.90625 0.0078125 6.742188 -0.0625 6.609375 -0.1875 C 6.472656 -0.320312 6.398438 -0.484375 6.390625 -0.671875 L 6.375 -1.65625 C 6.050781 -1.09375 5.613281 -0.648438 5.0625 -0.328125 C 4.519531 -0.015625 3.929688 0.140625 3.296875 0.140625 C 2.535156 0.140625 1.957031 -0.125 1.5625 -0.65625 C 1.175781 -1.1875 0.984375 -1.972656 0.984375 -3.015625 Z M 0.984375 -3.015625 "/></g></g></g><g fill="#eaeaea" fill-opacity="1"><g transform="translate(171.129286, 268.006593)"><g><path d="M 11.90625 0 L 10.953125 0 L 10.953125 -4.078125 C 10.953125 -4.921875 10.816406 -5.539062 10.546875 -5.9375 C 10.273438 -6.34375 9.875 -6.546875 9.34375 -6.546875 C 8.789062 -6.546875 8.296875 -6.347656 7.859375 -5.953125 C 7.421875 -5.566406 7.113281 -5.066406 6.9375 -4.453125 L 6.9375 0 L 5.984375 0 L 5.984375 -4.078125 C 5.984375 -4.929688 5.851562 -5.554688 5.59375 -5.953125 C 5.332031 -6.347656 4.929688 -6.546875 4.390625 -6.546875 C 3.847656 -6.546875 3.359375 -6.351562 2.921875 -5.96875 C 2.484375 -5.59375 2.175781 -5.09375 2 -4.46875 L 2 0 L 1.046875 0 L 1.046875 -7.296875 L 1.921875 -7.296875 L 1.921875 -5.640625 C 2.222656 -6.210938 2.613281 -6.648438 3.09375 -6.953125 C 3.582031 -7.265625 4.117188 -7.421875 4.703125 -7.421875 C 5.304688 -7.421875 5.796875 -7.25 6.171875 -6.90625 C 6.546875 -6.5625 6.773438 -6.109375 6.859375 -5.546875 C 7.191406 -6.160156 7.59375 -6.625 8.0625 -6.9375 C 8.539062 -7.257812 9.078125 -7.421875 9.671875 -7.421875 C 10.085938 -7.421875 10.4375 -7.34375 10.71875 -7.1875 C 11 -7.039062 11.222656 -6.828125 11.390625 -6.546875 C 11.566406 -6.273438 11.695312 -5.945312 11.78125 -5.5625 C 11.863281 -5.175781 11.90625 -4.742188 11.90625 -4.265625 Z M 11.90625 0 "/></g></g></g><g fill="#eaeaea" fill-opacity="1"><g transform="translate(183.988107, 268.006593)"><g><path d="M 4.625 0.140625 C 4.050781 0.140625 3.519531 -0.00390625 3.03125 -0.296875 C 2.550781 -0.585938 2.175781 -0.957031 1.90625 -1.40625 L 1.90625 0 L 1.046875 0 L 1.046875 -10.21875 L 2 -10.21875 L 2 -5.765625 C 2.320312 -6.265625 2.710938 -6.664062 3.171875 -6.96875 C 3.628906 -7.269531 4.164062 -7.421875 4.78125 -7.421875 C 5.289062 -7.421875 5.75 -7.3125 6.15625 -7.09375 C 6.5625 -6.882812 6.90625 -6.597656 7.1875 -6.234375 C 7.476562 -5.878906 7.695312 -5.472656 7.84375 -5.015625 C 8 -4.566406 8.078125 -4.101562 8.078125 -3.625 C 8.078125 -3.113281 7.988281 -2.632812 7.8125 -2.1875 C 7.644531 -1.738281 7.398438 -1.335938 7.078125 -0.984375 C 6.765625 -0.640625 6.398438 -0.363281 5.984375 -0.15625 C 5.566406 0.0390625 5.113281 0.140625 4.625 0.140625 Z M 4.390625 -0.703125 C 4.785156 -0.703125 5.148438 -0.78125 5.484375 -0.9375 C 5.816406 -1.09375 6.101562 -1.3125 6.34375 -1.59375 C 6.59375 -1.875 6.78125 -2.1875 6.90625 -2.53125 C 7.039062 -2.882812 7.109375 -3.25 7.109375 -3.625 C 7.109375 -4.132812 7 -4.613281 6.78125 -5.0625 C 6.5625 -5.519531 6.257812 -5.882812 5.875 -6.15625 C 5.488281 -6.4375 5.035156 -6.578125 4.515625 -6.578125 C 4.140625 -6.578125 3.789062 -6.492188 3.46875 -6.328125 C 3.144531 -6.160156 2.859375 -5.9375 2.609375 -5.65625 C 2.359375 -5.382812 2.15625 -5.085938 2 -4.765625 L 2 -2.484375 C 2.039062 -2.234375 2.140625 -2 2.296875 -1.78125 C 2.453125 -1.5625 2.648438 -1.375 2.890625 -1.21875 C 3.128906 -1.0625 3.378906 -0.9375 3.640625 -0.84375 C 3.898438 -0.75 4.148438 -0.703125 4.390625 -0.703125 Z M 4.390625 -0.703125 "/></g></g></g><g fill="#eaeaea" fill-opacity="1"><g transform="translate(192.621289, 268.006593)"><g><path d="M 4.625 0.140625 C 4.050781 0.140625 3.519531 -0.00390625 3.03125 -0.296875 C 2.550781 -0.585938 2.175781 -0.957031 1.90625 -1.40625 L 1.90625 0 L 1.046875 0 L 1.046875 -10.21875 L 2 -10.21875 L 2 -5.765625 C 2.320312 -6.265625 2.710938 -6.664062 3.171875 -6.96875 C 3.628906 -7.269531 4.164062 -7.421875 4.78125 -7.421875 C 5.289062 -7.421875 5.75 -7.3125 6.15625 -7.09375 C 6.5625 -6.882812 6.90625 -6.597656 7.1875 -6.234375 C 7.476562 -5.878906 7.695312 -5.472656 7.84375 -5.015625 C 8 -4.566406 8.078125 -4.101562 8.078125 -3.625 C 8.078125 -3.113281 7.988281 -2.632812 7.8125 -2.1875 C 7.644531 -1.738281 7.398438 -1.335938 7.078125 -0.984375 C 6.765625 -0.640625 6.398438 -0.363281 5.984375 -0.15625 C 5.566406 0.0390625 5.113281 0.140625 4.625 0.140625 Z M 4.390625 -0.703125 C 4.785156 -0.703125 5.148438 -0.78125 5.484375 -0.9375 C 5.816406 -1.09375 6.101562 -1.3125 6.34375 -1.59375 C 6.59375 -1.875 6.78125 -2.1875 6.90625 -2.53125 C 7.039062 -2.882812 7.109375 -3.25 7.109375 -3.625 C 7.109375 -4.132812 7 -4.613281 6.78125 -5.0625 C 6.5625 -5.519531 6.257812 -5.882812 5.875 -6.15625 C 5.488281 -6.4375 5.035156 -6.578125 4.515625 -6.578125 C 4.140625 -6.578125 3.789062 -6.492188 3.46875 -6.328125 C 3.144531 -6.160156 2.859375 -5.9375 2.609375 -5.65625 C 2.359375 -5.382812 2.15625 -5.085938 2 -4.765625 L 2 -2.484375 C 2.039062 -2.234375 2.140625 -2 2.296875 -1.78125 C 2.453125 -1.5625 2.648438 -1.375 2.890625 -1.21875 C 3.128906 -1.0625 3.378906 -0.9375 3.640625 -0.84375 C 3.898438 -0.75 4.148438 -0.703125 4.390625 -0.703125 Z M 4.390625 -0.703125 "/></g></g></g><g fill="#eaeaea" fill-opacity="1"><g transform="translate(201.254471, 268.006593)"><g><path d="M 0.46875 -2.09375 C 0.46875 -2.550781 0.597656 -2.945312 0.859375 -3.28125 C 1.117188 -3.613281 1.476562 -3.867188 1.9375 -4.046875 C 2.394531 -4.234375 2.929688 -4.328125 3.546875 -4.328125 C 3.898438 -4.328125 4.265625 -4.296875 4.640625 -4.234375 C 5.023438 -4.179688 5.367188 -4.097656 5.671875 -3.984375 L 5.671875 -4.609375 C 5.671875 -5.222656 5.488281 -5.710938 5.125 -6.078125 C 4.757812 -6.441406 4.253906 -6.625 3.609375 -6.625 C 3.222656 -6.625 2.835938 -6.550781 2.453125 -6.40625 C 2.078125 -6.257812 1.6875 -6.046875 1.28125 -5.765625 L 0.90625 -6.4375 C 1.382812 -6.769531 1.851562 -7.015625 2.3125 -7.171875 C 2.769531 -7.335938 3.234375 -7.421875 3.703125 -7.421875 C 4.597656 -7.421875 5.304688 -7.160156 5.828125 -6.640625 C 6.359375 -6.128906 6.625 -5.421875 6.625 -4.515625 L 6.625 -1.140625 C 6.625 -1.015625 6.648438 -0.921875 6.703125 -0.859375 C 6.765625 -0.796875 6.851562 -0.757812 6.96875 -0.75 L 6.96875 0 C 6.863281 0.0078125 6.773438 0.0195312 6.703125 0.03125 C 6.628906 0.0390625 6.570312 0.0390625 6.53125 0.03125 C 6.300781 0.0195312 6.125 -0.0507812 6 -0.1875 C 5.882812 -0.332031 5.820312 -0.484375 5.8125 -0.640625 L 5.796875 -1.171875 C 5.472656 -0.753906 5.046875 -0.429688 4.515625 -0.203125 C 3.992188 0.0234375 3.460938 0.140625 2.921875 0.140625 C 2.453125 0.140625 2.03125 0.0390625 1.65625 -0.15625 C 1.28125 -0.363281 0.988281 -0.632812 0.78125 -0.96875 C 0.570312 -1.3125 0.46875 -1.6875 0.46875 -2.09375 Z M 5.34375 -1.546875 C 5.445312 -1.671875 5.523438 -1.789062 5.578125 -1.90625 C 5.640625 -2.03125 5.671875 -2.140625 5.671875 -2.234375 L 5.671875 -3.296875 C 5.347656 -3.421875 5.015625 -3.515625 4.671875 -3.578125 C 4.335938 -3.648438 4 -3.6875 3.65625 -3.6875 C 2.96875 -3.6875 2.414062 -3.550781 2 -3.28125 C 1.582031 -3.007812 1.375 -2.640625 1.375 -2.171875 C 1.375 -1.898438 1.441406 -1.644531 1.578125 -1.40625 C 1.722656 -1.164062 1.929688 -0.96875 2.203125 -0.8125 C 2.472656 -0.664062 2.789062 -0.59375 3.15625 -0.59375 C 3.613281 -0.59375 4.039062 -0.679688 4.4375 -0.859375 C 4.832031 -1.035156 5.132812 -1.265625 5.34375 -1.546875 Z M 5.34375 -1.546875 "/></g></g></g><g fill="#eaeaea" fill-opacity="1"><g transform="translate(208.880218, 268.006593)"><g><path d="M 6.265625 0 L 3.5625 -3.734375 L 2 -2.28125 L 2 0 L 1.046875 0 L 1.046875 -10.21875 L 2 -10.21875 L 2 -3.296875 L 6.125 -7.28125 L 7.1875 -7.28125 L 4.203125 -4.296875 L 7.296875 0 Z M 6.265625 0 "/></g></g></g><g fill="#eaeaea" fill-opacity="1"><g transform="translate(216.296081, 268.006593)"><g><path d="M 4.203125 0.140625 C 3.679688 0.140625 3.195312 0.0390625 2.75 -0.15625 C 2.300781 -0.363281 1.910156 -0.640625 1.578125 -0.984375 C 1.253906 -1.335938 1 -1.742188 0.8125 -2.203125 C 0.632812 -2.660156 0.546875 -3.148438 0.546875 -3.671875 C 0.546875 -4.347656 0.703125 -4.96875 1.015625 -5.53125 C 1.328125 -6.101562 1.757812 -6.5625 2.3125 -6.90625 C 2.863281 -7.25 3.488281 -7.421875 4.1875 -7.421875 C 4.90625 -7.421875 5.53125 -7.25 6.0625 -6.90625 C 6.601562 -6.5625 7.023438 -6.101562 7.328125 -5.53125 C 7.640625 -4.96875 7.796875 -4.351562 7.796875 -3.6875 C 7.796875 -3.601562 7.796875 -3.523438 7.796875 -3.453125 C 7.796875 -3.390625 7.789062 -3.335938 7.78125 -3.296875 L 1.546875 -3.296875 C 1.585938 -2.773438 1.734375 -2.3125 1.984375 -1.90625 C 2.234375 -1.5 2.554688 -1.175781 2.953125 -0.9375 C 3.347656 -0.707031 3.773438 -0.59375 4.234375 -0.59375 C 4.710938 -0.59375 5.164062 -0.710938 5.59375 -0.953125 C 6.019531 -1.191406 6.316406 -1.507812 6.484375 -1.90625 L 7.3125 -1.6875 C 7.15625 -1.332031 6.921875 -1.015625 6.609375 -0.734375 C 6.304688 -0.460938 5.945312 -0.25 5.53125 -0.09375 C 5.113281 0.0625 4.671875 0.140625 4.203125 0.140625 Z M 1.515625 -3.984375 L 6.90625 -3.984375 C 6.863281 -4.515625 6.71875 -4.976562 6.46875 -5.375 C 6.226562 -5.78125 5.90625 -6.097656 5.5 -6.328125 C 5.101562 -6.554688 4.671875 -6.671875 4.203125 -6.671875 C 3.722656 -6.671875 3.285156 -6.554688 2.890625 -6.328125 C 2.503906 -6.097656 2.1875 -5.78125 1.9375 -5.375 C 1.6875 -4.976562 1.546875 -4.515625 1.515625 -3.984375 Z M 1.515625 -3.984375 "/></g></g></g><g fill="#eaeaea" fill-opacity="1"><g transform="translate(224.509494, 268.006593)"><g><path d="M 4.6875 -6.453125 C 4.050781 -6.429688 3.492188 -6.253906 3.015625 -5.921875 C 2.535156 -5.585938 2.195312 -5.125 2 -4.53125 L 2 0 L 1.046875 0 L 1.046875 -7.296875 L 1.953125 -7.296875 L 1.953125 -5.546875 C 2.203125 -6.054688 2.53125 -6.46875 2.9375 -6.78125 C 3.351562 -7.101562 3.796875 -7.285156 4.265625 -7.328125 C 4.359375 -7.335938 4.441406 -7.34375 4.515625 -7.34375 C 4.585938 -7.34375 4.644531 -7.335938 4.6875 -7.328125 Z M 4.6875 -6.453125 "/></g></g></g><g fill="#eaeaea" fill-opacity="1"><g transform="translate(229.420748, 268.006593)"><g><path d="M 1.46875 2.234375 C 1.601562 2.242188 1.726562 2.25 1.84375 2.25 C 1.96875 2.257812 2.054688 2.253906 2.109375 2.234375 C 2.222656 2.222656 2.332031 2.160156 2.4375 2.046875 C 2.539062 1.929688 2.660156 1.710938 2.796875 1.390625 C 2.941406 1.078125 3.140625 0.613281 3.390625 0 L 0.203125 -7.296875 L 1.21875 -7.296875 L 3.890625 -0.984375 L 6.359375 -7.296875 L 7.3125 -7.296875 L 3.53125 2.109375 C 3.46875 2.285156 3.367188 2.453125 3.234375 2.609375 C 3.097656 2.765625 2.9375 2.882812 2.75 2.96875 C 2.5625 3.0625 2.328125 3.113281 2.046875 3.125 C 1.960938 3.132812 1.875 3.132812 1.78125 3.125 C 1.695312 3.125 1.59375 3.113281 1.46875 3.09375 Z M 1.46875 2.234375 "/></g></g></g><g fill="#eaeaea" fill-opacity="1"><g transform="translate(237.004518, 268.006593)"><g><path d="M 0.90625 0 L 0.90625 -1.375 L 1.734375 -1.375 L 1.734375 0 Z M 0.90625 0 "/></g></g></g><g fill="#eaeaea" fill-opacity="1"><g transform="translate(239.649042, 268.006593)"><g><path d="M 4.21875 0.140625 C 3.6875 0.140625 3.195312 0.0390625 2.75 -0.15625 C 2.3125 -0.363281 1.925781 -0.644531 1.59375 -1 C 1.257812 -1.351562 1 -1.753906 0.8125 -2.203125 C 0.632812 -2.660156 0.546875 -3.148438 0.546875 -3.671875 C 0.546875 -4.359375 0.695312 -4.984375 1 -5.546875 C 1.3125 -6.117188 1.742188 -6.570312 2.296875 -6.90625 C 2.847656 -7.25 3.484375 -7.421875 4.203125 -7.421875 C 4.878906 -7.421875 5.476562 -7.265625 6 -6.953125 C 6.53125 -6.640625 6.921875 -6.21875 7.171875 -5.6875 L 6.25 -5.390625 C 6.039062 -5.765625 5.75 -6.054688 5.375 -6.265625 C 5.007812 -6.472656 4.601562 -6.578125 4.15625 -6.578125 C 3.675781 -6.578125 3.234375 -6.453125 2.828125 -6.203125 C 2.421875 -5.953125 2.097656 -5.609375 1.859375 -5.171875 C 1.628906 -4.734375 1.515625 -4.234375 1.515625 -3.671875 C 1.515625 -3.117188 1.632812 -2.617188 1.875 -2.171875 C 2.113281 -1.722656 2.429688 -1.363281 2.828125 -1.09375 C 3.234375 -0.832031 3.679688 -0.703125 4.171875 -0.703125 C 4.484375 -0.703125 4.785156 -0.753906 5.078125 -0.859375 C 5.378906 -0.972656 5.640625 -1.125 5.859375 -1.3125 C 6.078125 -1.507812 6.222656 -1.722656 6.296875 -1.953125 L 7.234375 -1.671875 C 7.109375 -1.316406 6.890625 -1.003906 6.578125 -0.734375 C 6.273438 -0.460938 5.921875 -0.25 5.515625 -0.09375 C 5.109375 0.0625 4.675781 0.140625 4.21875 0.140625 Z M 4.21875 0.140625 "/></g></g></g><g fill="#eaeaea" fill-opacity="1"><g transform="translate(247.330751, 268.006593)"><g><path d="M 4.15625 0.140625 C 3.632812 0.140625 3.148438 0.0390625 2.703125 -0.15625 C 2.265625 -0.363281 1.882812 -0.640625 1.5625 -0.984375 C 1.238281 -1.335938 0.988281 -1.738281 0.8125 -2.1875 C 0.632812 -2.644531 0.546875 -3.125 0.546875 -3.625 C 0.546875 -4.144531 0.632812 -4.628906 0.8125 -5.078125 C 0.988281 -5.535156 1.238281 -5.9375 1.5625 -6.28125 C 1.894531 -6.632812 2.28125 -6.910156 2.71875 -7.109375 C 3.164062 -7.316406 3.648438 -7.421875 4.171875 -7.421875 C 4.691406 -7.421875 5.171875 -7.316406 5.609375 -7.109375 C 6.046875 -6.910156 6.425781 -6.632812 6.75 -6.28125 C 7.082031 -5.9375 7.335938 -5.535156 7.515625 -5.078125 C 7.691406 -4.628906 7.78125 -4.144531 7.78125 -3.625 C 7.78125 -3.125 7.691406 -2.644531 7.515625 -2.1875 C 7.335938 -1.738281 7.085938 -1.335938 6.765625 -0.984375 C 6.441406 -0.640625 6.054688 -0.363281 5.609375 -0.15625 C 5.171875 0.0390625 4.6875 0.140625 4.15625 0.140625 Z M 1.515625 -3.609375 C 1.515625 -3.066406 1.628906 -2.570312 1.859375 -2.125 C 2.097656 -1.6875 2.421875 -1.335938 2.828125 -1.078125 C 3.234375 -0.828125 3.675781 -0.703125 4.15625 -0.703125 C 4.644531 -0.703125 5.085938 -0.832031 5.484375 -1.09375 C 5.890625 -1.351562 6.210938 -1.707031 6.453125 -2.15625 C 6.691406 -2.613281 6.8125 -3.109375 6.8125 -3.640625 C 6.8125 -4.179688 6.691406 -4.675781 6.453125 -5.125 C 6.210938 -5.570312 5.890625 -5.925781 5.484375 -6.1875 C 5.085938 -6.445312 4.644531 -6.578125 4.15625 -6.578125 C 3.675781 -6.578125 3.234375 -6.441406 2.828125 -6.171875 C 2.429688 -5.898438 2.113281 -5.539062 1.875 -5.09375 C 1.632812 -4.65625 1.515625 -4.160156 1.515625 -3.609375 Z M 1.515625 -3.609375 "/></g></g></g><g fill="#eaeaea" fill-opacity="1"><g transform="translate(255.656098, 268.006593)"><g><path d="M 11.90625 0 L 10.953125 0 L 10.953125 -4.078125 C 10.953125 -4.921875 10.816406 -5.539062 10.546875 -5.9375 C 10.273438 -6.34375 9.875 -6.546875 9.34375 -6.546875 C 8.789062 -6.546875 8.296875 -6.347656 7.859375 -5.953125 C 7.421875 -5.566406 7.113281 -5.066406 6.9375 -4.453125 L 6.9375 0 L 5.984375 0 L 5.984375 -4.078125 C 5.984375 -4.929688 5.851562 -5.554688 5.59375 -5.953125 C 5.332031 -6.347656 4.929688 -6.546875 4.390625 -6.546875 C 3.847656 -6.546875 3.359375 -6.351562 2.921875 -5.96875 C 2.484375 -5.59375 2.175781 -5.09375 2 -4.46875 L 2 0 L 1.046875 0 L 1.046875 -7.296875 L 1.921875 -7.296875 L 1.921875 -5.640625 C 2.222656 -6.210938 2.613281 -6.648438 3.09375 -6.953125 C 3.582031 -7.265625 4.117188 -7.421875 4.703125 -7.421875 C 5.304688 -7.421875 5.796875 -7.25 6.171875 -6.90625 C 6.546875 -6.5625 6.773438 -6.109375 6.859375 -5.546875 C 7.191406 -6.160156 7.59375 -6.625 8.0625 -6.9375 C 8.539062 -7.257812 9.078125 -7.421875 9.671875 -7.421875 C 10.085938 -7.421875 10.4375 -7.34375 10.71875 -7.1875 C 11 -7.039062 11.222656 -6.828125 11.390625 -6.546875 C 11.566406 -6.273438 11.695312 -5.945312 11.78125 -5.5625 C 11.863281 -5.175781 11.90625 -4.742188 11.90625 -4.265625 Z M 11.90625 0 "/></g></g></g></svg>